<svg xmlns="http://www.w3.org/2000/svg"  viewBox="0 0 50 50" width="50px" height="50px"><path d="M 5.28125 2 C 4.765625 2.09375 4.410156 2.574219 4.46875 3.09375 L 8 42.53125 C 8.046875 42.933594 8.332031 43.265625 8.71875 43.375 L 24.71875 47.96875 C 24.902344 48.023438 25.097656 48.023438 25.28125 47.96875 L 41.28125 43.375 C 41.667969 43.265625 41.953125 42.933594 42 42.53125 L 45.53125 3.09375 C 45.558594 2.8125 45.464844 2.535156 45.273438 2.324219 C 45.082031 2.117188 44.8125 2 44.53125 2 L 5.46875 2 C 5.4375 2 5.40625 2 5.375 2 C 5.34375 2 5.3125 2 5.28125 2 Z M 6.5625 4 L 43.4375 4 L 40.09375 41.65625 L 25 45.9375 L 9.90625 41.65625 Z M 12.53125 10.0625 C 12.015625 10.15625 11.660156 10.636719 11.71875 11.15625 L 13.0625 25.9375 C 13.09375 26.453125 13.515625 26.859375 14.03125 26.875 L 30 26.875 L 29.5625 31.46875 L 25.03125 32.4375 L 20.4375 31.46875 L 20.28125 29.84375 C 20.25 29.316406 19.808594 28.90625 19.28125 28.90625 L 14.40625 28.90625 C 14.125 28.90625 13.855469 29.023438 13.664063 29.230469 C 13.472656 29.441406 13.378906 29.71875 13.40625 30 L 13.96875 36.125 C 14 36.527344 14.269531 36.875 14.65625 37 L 24.59375 40.03125 L 24.71875 40.0625 C 24.902344 40.117188 25.097656 40.117188 25.28125 40.0625 L 35.34375 37 C 35.742188 36.886719 36.027344 36.539063 36.0625 36.125 L 37.375 21.09375 C 37.402344 20.816406 37.3125 20.542969 37.128906 20.335938 C 36.945313 20.128906 36.683594 20.007813 36.40625 20 L 19.375 20 L 19.125 16.90625 L 36.84375 16.90625 C 37.363281 16.910156 37.796875 16.515625 37.84375 16 L 38.28125 11.15625 C 38.308594 10.875 38.214844 10.597656 38.023438 10.386719 C 37.832031 10.179688 37.5625 10.0625 37.28125 10.0625 L 12.71875 10.0625 C 12.65625 10.054688 12.59375 10.054688 12.53125 10.0625 Z M 13.8125 12.0625 L 36.1875 12.0625 L 35.9375 14.90625 L 18.03125 14.90625 C 17.75 14.90625 17.480469 15.023438 17.289063 15.230469 C 17.097656 15.441406 17.003906 15.71875 17.03125 16 L 17.5 21.09375 C 17.546875 21.597656 17.964844 21.988281 18.46875 22 L 35.3125 22 L 34.125 35.28125 L 25 38.03125 L 15.875 35.28125 L 15.5 30.90625 L 18.375 30.90625 L 18.5 32.375 C 18.53125 32.816406 18.847656 33.183594 19.28125 33.28125 L 24.84375 34.4375 C 24.976563 34.464844 25.117188 34.464844 25.25 34.4375 L 30.71875 33.28125 C 31.152344 33.183594 31.46875 32.816406 31.5 32.375 L 32.09375 25.9375 C 32.109375 25.660156 32.011719 25.390625 31.824219 25.191406 C 31.632813 24.988281 31.371094 24.875 31.09375 24.875 L 14.9375 24.875 Z"/></svg>