<svg xmlns="http://www.w3.org/2000/svg"  viewBox="0 0 50 50" width="50px" height="50px"><path d="M 12.138672 7 C 9.6276719 7 7.7705156 9.2570781 7.8535156 11.705078 C 7.9335156 14.056078 7.8290312 17.102938 7.0820312 19.585938 C 6.3340313 22.076937 5.068 23.651516 3 23.853516 L 3 26.146484 C 5.068 26.348484 6.3340312 27.923062 7.0820312 30.414062 C 7.8290312 32.897063 7.9325156 35.943922 7.8535156 38.294922 C 7.7705156 40.742922 9.6276719 43 12.138672 43 L 37.865234 43 C 40.376234 43 42.233391 40.742922 42.150391 38.294922 C 42.070391 35.943922 42.173922 32.897063 42.919922 30.414062 C 43.668922 27.923063 44.932 26.348484 47 26.146484 L 47 23.853516 C 44.932 23.651516 43.668922 22.076937 42.919922 19.585938 C 42.172922 17.102937 42.070391 14.056078 42.150391 11.705078 C 42.232391 9.2570781 40.374281 7 37.863281 7 L 12.138672 7 z M 12.138672 9 L 37.863281 9 C 38.596281 9 39.105344 9.3658281 39.402344 9.6738281 C 39.902344 10.190828 40.175391 10.906719 40.150391 11.636719 C 40.071391 13.966719 40.154906 17.336156 41.003906 20.160156 C 41.783906 22.756156 43.011203 24.21 44.283203 25 C 43.012203 25.79 41.784906 27.244844 41.003906 29.839844 C 40.154906 32.663844 40.071391 36.033281 40.150391 38.363281 C 40.175391 39.093281 39.902344 39.808172 39.402344 40.326172 C 39.105344 40.634172 38.596281 41 37.863281 41 L 12.138672 41 C 11.405672 41 10.898563 40.634172 10.601562 40.326172 C 10.101562 39.809172 9.8285156 39.093281 9.8535156 38.363281 C 9.9325156 36.033281 9.8470469 32.663844 8.9980469 29.839844 C 8.2180469 27.244844 6.99075 25.79 5.71875 25 C 6.99075 24.21 8.2180469 22.755156 8.9980469 20.160156 C 9.8470469 17.336156 9.9325156 13.966719 9.8535156 11.636719 C 9.8285156 10.906719 10.101562 10.190828 10.601562 9.6738281 C 10.898563 9.3658281 11.405672 9 12.138672 9 z M 17.867188 15.632812 L 17.867188 34.365234 L 25.576172 34.365234 C 27.579172 34.365234 29.242766 33.877172 30.384766 32.951172 C 31.528766 32.024172 32.132813 30.675781 32.132812 29.050781 C 32.132812 26.596781 30.388062 24.752172 27.789062 24.451172 L 27.789062 24.421875 C 29.700063 24.091875 31.191406 22.301125 31.191406 20.328125 C 31.191406 18.933125 30.655625 17.752109 29.640625 16.912109 C 28.629625 16.075109 27.209156 15.632812 25.535156 15.632812 L 17.867188 15.632812 z M 20.919922 18.083984 L 24.822266 18.083984 C 26.963266 18.083984 28.142578 19.022516 28.142578 20.728516 C 28.141578 22.559516 26.741219 23.568359 24.199219 23.568359 L 20.919922 23.568359 L 20.919922 18.083984 z M 20.919922 25.863281 L 24.794922 25.863281 C 27.594922 25.863281 29.015625 26.876094 29.015625 28.871094 C 29.015625 30.864094 27.614797 31.917969 24.966797 31.917969 L 20.919922 31.917969 L 20.919922 25.863281 z"/></svg>