<?xml version="1.0" encoding="utf-8"?>
<!-- Generator: Adobe Illustrator 27.5.0, SVG Export Plug-In . SVG Version: 6.00 Build 0)  -->
<svg version="1.1" xmlns="http://www.w3.org/2000/svg" xmlns:xlink="http://www.w3.org/1999/xlink" x="0px" y="0px"
	 viewBox="0 0 500 500" style="enable-background:new 0 0 500 500;" xml:space="preserve">
<g id="Floor">
	<ellipse id="Floor_7_" style="fill:#F0F0F0;" cx="249.048" cy="344.048" rx="236.581" ry="136.59"/>
</g>
<g id="Shadows">
	<ellipse id="Shadow_10_" style="fill:#E0E0E0;" cx="384.657" cy="408.134" rx="35.108" ry="20.27"/>
	<path id="Shadow_18_" style="fill:#E0E0E0;" d="M65.987,385.554l-39.269-22.672c-1.387-0.801-1.387-2.098,0-2.899l216.425-124.953
		c1.387-0.801,3.635-0.801,5.021,0l39.27,22.671c1.387,0.801,1.387,2.098,0,2.899L71.009,385.554
		C69.622,386.354,67.374,386.354,65.987,385.554z"/>
</g>
<g id="Device">
	<g id="PC">
		<g id="Monitor">
			<g id="XMLID_947_">
				<g id="XMLID_1161_">
					<path id="XMLID_1162_" style="fill:#27DEBF;" d="M202.194,350.049l31.619-18.282c3.259-1.882,4.889-4.347,4.889-6.814
						c0-2.467,0.014-4.398,0.014-4.398l-38.051-21.558c-1.738-1.004-3.147-3.444-3.147-5.452v-38.984l-55.227,31.913l-0.002,38.983
						c0,2.007,1.409,4.448,3.147,5.452l33.151,19.14C185.107,353.813,195.676,353.812,202.194,350.049z"/>
				</g>
				<g id="XMLID_941_" style="opacity:0.5;">
					<path id="XMLID_942_" d="M202.194,350.049l31.619-18.282c3.259-1.882,4.889-4.347,4.889-6.814c0-2.467,0.014-4.398,0.014-4.398
						l-38.051-21.558c-1.738-1.004-3.147-3.444-3.147-5.452v-38.984l-55.227,31.913l-0.002,38.983c0,2.007,1.409,4.448,3.147,5.452
						l33.151,19.14C185.107,353.813,195.676,353.812,202.194,350.049z"/>
				</g>
				<path id="XMLID_950_" style="fill:#27DEBF;" d="M155.55,332.36v4.379l-10.122-5.833c-1.726-0.999-3.144-3.435-3.144-5.452
					v-38.979l10.522-6.07c0.218,2.671,0.454,5.434,0.672,8.123l-7.378,4.27v30.457c0,2.017,1.399,4.452,3.144,5.452L155.55,332.36z"
					/>
				<path id="XMLID_2232_" style="opacity:0.7;" d="M155.55,332.36v4.379l-10.122-5.833c-1.726-0.999-3.144-3.435-3.144-5.452
					v-38.979l10.522-6.07c0.218,2.671,0.454,5.434,0.672,8.123l-7.378,4.27v30.457c0,2.017,1.399,4.452,3.144,5.452L155.55,332.36z"
					/>
				<path id="XMLID_949_" style="fill:#27DEBF;" d="M146.099,323.263c0,2.007,1.409,4.448,3.147,5.452l29.338,16.938
					c6.519,3.763,17.088,3.765,23.608,0.003l31.635-18.28c6.52-3.762,6.52-9.863,0.002-13.627l-29.353-16.947
					c-1.738-1.004-3.148-3.444-3.148-5.452l0-30.46l-55.229,31.913V323.263z"/>
				<path id="XMLID_939_" style="opacity:0.3;" d="M146.099,323.263c0,2.007,1.409,4.448,3.147,5.452l29.338,16.938
					c6.519,3.763,17.088,3.765,23.608,0.003l31.635-18.28c6.52-3.762,6.52-9.863,0.002-13.627l-29.353-16.947
					c-1.738-1.004-3.148-3.444-3.148-5.452l0-30.46l-55.229,31.913V323.263z"/>
				<path id="XMLID_948_" style="opacity:0.7;fill:#27DEBF;" d="M210.886,300.506v-0.004l-6.411-3.701
					c-1.739-1.004-3.148-3.445-3.148-5.452l0-30.46l-55.229,31.913v30.462c0,2.007,1.409,4.448,3.148,5.452l6.3,3.637
					L210.886,300.506z"/>
				<path id="XMLID_938_" style="opacity:0.6;" d="M210.886,300.506v-0.004l-6.411-3.701c-1.739-1.004-3.148-3.445-3.148-5.452
					l0-30.46l-55.229,31.913v30.462c0,2.007,1.409,4.448,3.148,5.452l6.3,3.637L210.886,300.506z"/>
				<path id="XMLID_2604_" style="fill:#27DEBF;" d="M238.71,320.558c0,0,0,1.926,0,4.398s-1.635,4.925-4.888,6.815l-31.624,18.272
					c-3.126,1.817-7.178,2.726-11.267,2.798v-4.38c4.089-0.054,8.141-0.999,11.267-2.798l31.624-18.29
					C237.074,325.5,238.71,323.029,238.71,320.558z"/>
				<path id="XMLID_940_" style="opacity:0.2;" d="M238.71,320.558c0,0,0,1.926,0,4.398s-1.635,4.925-4.888,6.815l-31.624,18.272
					c-3.126,1.817-7.178,2.726-11.267,2.798v-4.38c4.089-0.054,8.141-0.999,11.267-2.798l31.624-18.29
					C237.074,325.5,238.71,323.029,238.71,320.558z"/>
			</g>
			<path id="XMLID_946_" style="fill:#27DEBF;" d="M57.423,365.319c2.038,1.177,5.453,1.113,7.625-0.141
				C92.2,349.502,251.483,257.542,278.631,241.869c2.173-1.255,3.933-4.305,3.933-6.814V48.109c0-2.509-1.652-5.497-3.691-6.674
				c-2.038-1.177-5.452-1.114-7.625,0.141L57.67,164.885c-2.173,1.255-3.934,4.305-3.934,6.815l-0.002,186.945
				C53.733,361.154,55.385,364.142,57.423,365.319z"/>
			<path id="XMLID_1163_" style="opacity:0.3;" d="M57.423,365.319c2.038,1.177,5.453,1.113,7.625-0.141
				C92.2,349.502,251.483,257.542,278.631,241.869c2.173-1.255,3.933-4.305,3.933-6.814V48.109c0-2.509-1.652-5.497-3.691-6.674
				c-2.038-1.177-5.452-1.114-7.625,0.141L57.67,164.885c-2.173,1.255-3.934,4.305-3.934,6.815l-0.002,186.945
				C53.733,361.154,55.385,364.142,57.423,365.319z"/>
			<path id="XMLID_945_" style="fill:#27DEBF;" d="M65.05,365.173l213.581-123.309c2.173-1.255,3.935-4.305,3.935-6.815V48.104
				c0-2.509-1.761-3.526-3.935-2.272L65.052,169.142c-2.173,1.254-3.934,4.305-3.934,6.814l-0.003,186.945
				C61.116,365.41,62.877,366.427,65.05,365.173z"/>
			<path id="XMLID_944_" style="fill:#27DEBF;" d="M65.05,365.173l213.581-123.309c2.173-1.255,3.935-4.305,3.935-6.815V48.104
				c0-2.509-1.761-3.526-3.935-2.272L65.052,169.142c-2.173,1.254-3.934,4.305-3.934,6.814l-0.003,186.945
				C61.116,365.41,62.877,366.427,65.05,365.173z"/>
			<path id="XMLID_2052_" style="opacity:0.5;" d="M65.05,365.173l213.581-123.309c2.173-1.255,3.935-4.305,3.935-6.815V48.104
				c0-2.509-1.761-3.526-3.935-2.272L65.052,169.142c-2.173,1.254-3.934,4.305-3.934,6.814l-0.003,186.945
				C61.116,365.41,62.877,366.427,65.05,365.173z"/>
			<path id="XMLID_2461_" style="fill:#27DEBF;" d="M64.471,365.47c-2.181,0.963-5.197,0.927-7.051-0.145
				c-2.035-1.181-3.689-4.162-3.689-6.687v-21.025l7.378,4.271v21.025C61.109,365.197,62.563,366.233,64.471,365.47z"/>
			<path id="XMLID_937_" style="opacity:0.7;" d="M64.471,365.47c-2.181,0.963-5.197,0.927-7.051-0.145
				c-2.035-1.181-3.689-4.162-3.689-6.687v-21.025l7.378,4.271v21.025C61.109,365.197,62.563,366.233,64.471,365.47z"/>
			<path id="XMLID_2302_" style="fill:#27DEBF;" d="M61.116,341.877l0,21.024c0,2.509,1.762,3.526,3.934,2.272l213.581-123.309
				c2.173-1.255,3.934-4.305,3.934-6.815v-21.025L61.116,341.877z"/>
			<g id="XMLID_427_" style="opacity:0.5;">
				<path d="M61.116,341.877l0,21.024c0,2.509,1.762,3.526,3.934,2.272l213.581-123.309c2.173-1.255,3.934-4.305,3.934-6.815
					v-21.025L61.116,341.877z"/>
			</g>
			<path id="XMLID_943_" style="fill:#FAFAFA;" d="M68.495,326.367l0.002-147.961c0-1.506,1.057-3.336,2.361-4.089L272.819,57.715
				c1.304-0.753,2.361-0.142,2.361,1.363l0.007,147.964c0,1.505-1.057,3.336-2.361,4.089l-201.97,116.6
				C69.552,328.483,68.495,327.872,68.495,326.367z"/>
			<path id="XMLID_413_" style="fill:#27DEBF;" d="M171.838,286.475c-2.039,1.177-3.692,4.04-3.692,6.394
				c0,2.354,1.653,3.308,3.692,2.131c2.039-1.177,3.692-4.04,3.691-6.394C175.529,286.252,173.876,285.298,171.838,286.475z"/>
			<path id="XMLID_2130_" style="opacity:0.5;fill:#FFFFFF;" d="M171.838,286.475c-2.039,1.177-3.692,4.04-3.692,6.394
				c0,2.354,1.653,3.308,3.692,2.131c2.039-1.177,3.692-4.04,3.691-6.394C175.529,286.252,173.876,285.298,171.838,286.475z"/>
			<path id="XMLID_412_" style="fill:#27DEBF;" d="M62.272,172.064c-0.708,1.236-1.145,2.635-1.163,3.889v165.93l-7.378-4.271V171.7
				c0-1.254,0.454-2.653,1.163-3.889L62.272,172.064z"/>
			<path id="XMLID_2093_" style="opacity:0.7;" d="M62.272,172.064c-0.708,1.236-1.145,2.635-1.163,3.889v165.93l-7.378-4.271V171.7
				c0-1.254,0.454-2.653,1.163-3.889L62.272,172.064z"/>
		</g>
	</g>
	<g id="Keyboard">
		<path id="Shadow_19_" style="fill:#E0E0E0;" d="M138.895,407.943l53.367,30.899c1.65,0.956,4.328,0.958,5.98,0.006l157.662-90.902
			c1.652-0.953,1.654-2.499,0.003-3.455l-53.367-30.899c-1.65-0.956-4.328-0.958-5.98-0.005l-157.662,90.902
			C137.246,405.44,137.245,406.987,138.895,407.943z"/>
		<g id="Keyboard_1_">
			<g id="XMLID_2228_">
				<path id="XMLID_2231_" style="fill:#27DEBF;" d="M352.671,339.011c0.001-0.625-0.413-1.25-1.239-1.727l-50.136-28.941
					c-1.651-0.954-4.329-0.952-5.98,0.002l-152.982,88.469c-0.825,0.477-1.237,1.102-1.237,1.726c0.001,0.625,0.001,4.634,0,5.257
					c-0.001,0.626,0.413,1.251,1.242,1.727l50.11,28.939c1.653,0.95,4.332,0.948,5.984-0.006l152.999-88.328
					c0.823-0.475,1.236-1.097,1.239-1.719C352.674,343.783,352.671,339.636,352.671,339.011z"/>
				<path id="XMLID_2237_" style="opacity:0.5;" d="M352.671,339.011c0.001-0.625-0.413-1.25-1.239-1.727l-50.136-28.941
					c-1.651-0.954-4.329-0.952-5.98,0.002l-152.982,88.469c-0.825,0.477-1.237,1.102-1.237,1.726c0.001,0.625,0.001,4.634,0,5.257
					c-0.001,0.626,0.413,1.251,1.242,1.727l50.11,28.939c1.653,0.95,4.332,0.948,5.984-0.006l152.999-88.328
					c0.823-0.475,1.236-1.097,1.239-1.719C352.674,343.783,352.671,339.636,352.671,339.011z"/>
				<path id="XMLID_2230_" style="fill:#27DEBF;" d="M192.449,429.071l-50.11-28.807c-1.653-0.951-1.655-2.495-0.004-3.45
					l152.982-88.469c1.651-0.955,4.328-0.956,5.98-0.002l50.136,28.941c1.652,0.953,1.652,2.499,0,3.453l-152.999,88.329
					C196.782,430.019,194.103,430.022,192.449,429.071z"/>
				<path id="XMLID_2234_" style="opacity:0.3;" d="M192.449,429.071l-50.11-28.807c-1.653-0.951-1.655-2.495-0.004-3.45
					l152.982-88.469c1.651-0.955,4.328-0.956,5.98-0.002l50.136,28.941c1.652,0.953,1.652,2.499,0,3.453l-152.999,88.329
					C196.782,430.019,194.103,430.022,192.449,429.071z"/>
				<path id="XMLID_2229_" style="fill:#27DEBF;" d="M195.248,429.782v5.375c-1.013-0.023-2.026-0.253-2.809-0.69l-50.094-28.938
					c-0.828-0.483-1.243-1.105-1.243-1.726v-5.272c0,0.621,0.415,1.243,1.243,1.727l50.094,28.822
					C193.223,429.518,194.236,429.759,195.248,429.782z"/>
				<path id="XMLID_2236_" style="opacity:0.7;" d="M195.248,429.782v5.375c-1.013-0.023-2.026-0.253-2.809-0.69l-50.094-28.938
					c-0.828-0.483-1.243-1.105-1.243-1.726v-5.272c0,0.621,0.415,1.243,1.243,1.727l50.094,28.822
					C193.223,429.518,194.236,429.759,195.248,429.782z"/>
			</g>
			<g>
				<path style="fill:#37474F;" d="M259.239,345.605l5.712,3.296c0.137,0.08,0.301,0.088,0.364,0.088l5.266-2.932l-6.143-3.454
					L259.239,345.605z"/>
				<path style="fill:#37474F;" d="M266.114,341.637l5.735,3.311c0.094,0.047,0.214,0.073,0.339,0.073l0.213-0.014l5.053-2.918
					l-6.144-3.454L266.114,341.637z"/>
				<path style="fill:#37474F;" d="M247.669,352.289l5.733,3.311c0.093,0.046,0.216,0.073,0.336,0.073l8.525-4.811l-6.143-3.455
					L247.669,352.289z"/>
				<path style="fill:#37474F;" d="M240.796,356.257l5.727,3.308c0.093,0.048,0.218,0.076,0.342,0.076l5.27-2.931l-6.144-3.455
					L240.796,356.257z"/>
				<path style="fill:#37474F;" d="M209.402,408.179l5.266-2.932l-6.142-3.452l-5.199,2.999l5.736,3.311
					C209.159,408.153,209.279,408.179,209.402,408.179z"/>
				<path style="fill:#37474F;" d="M233.923,360.225l5.702,3.292c0.133,0.081,0.289,0.093,0.37,0.093l5.268-2.931l-6.144-3.455
					L233.923,360.225z"/>
				<path style="fill:#37474F;" d="M272.208,347.089l-5.199,3.001l5.723,3.304c0.097,0.052,0.221,0.08,0.352,0.08l5.268-2.934
					L272.208,347.089z"/>
				<path style="fill:#37474F;" d="M252.998,374.04l5.269-2.931l-6.144-3.454l-5.2,2.998l5.726,3.307
					C252.744,374.011,252.871,374.04,252.998,374.04z"/>
				<path style="fill:#37474F;" d="M279.956,349.507l5.269-2.932l-6.148-3.455l-5.192,3.001l5.732,3.311
					C279.712,349.481,279.832,349.507,279.956,349.507z"/>
				<path style="fill:#37474F;" d="M246.126,378.008l5.269-2.931l-6.145-3.454l-5.198,2.999l5.704,3.293
					C245.889,377.996,246.044,378.008,246.126,378.008z"/>
				<path style="fill:#37474F;" d="M239.255,381.977l5.266-2.931l-6.143-3.454l-5.2,2.998l5.736,3.312
					C239.01,381.949,239.134,381.977,239.255,381.977z"/>
				<path style="fill:#37474F;" d="M266.743,366.104l11.051-6.273l-13.904-7.939l-5.926,3.418l7.268,4.194
					c0.094,0.055,0.206,0.151,0.206,0.3c0,0.102-0.067,0.201-0.18,0.266l-4.587,2.647l5.697,3.288
					C266.504,366.092,266.661,366.104,266.743,366.104z"/>
				<path style="fill:#37474F;" d="M220.176,368.158l5.73,3.311c0.093,0.048,0.218,0.076,0.342,0.076l5.27-2.931l-6.144-3.454
					L220.176,368.158z"/>
				<path style="fill:#37474F;" d="M259.868,370.073l5.271-2.931l-6.145-3.455l-5.198,2.999l5.695,3.288
					C259.632,370.063,259.802,370.073,259.868,370.073z"/>
				<path style="fill:#37474F;" d="M181.568,406.31l5.268-2.932l-6.144-3.455l-5.199,3.002l5.705,3.291
					C181.336,406.301,181.502,406.31,181.568,406.31z"/>
				<path style="fill:#37474F;" d="M165.195,399.902l5.749,3.318c0.091,0.042,0.21,0.066,0.325,0.066l0.213-0.014l5.053-2.918
					l-6.144-3.452L165.195,399.902z"/>
				<path style="fill:#37474F;" d="M191.145,409.75l0.213-0.014l5.053-2.918l-6.144-3.452l-5.196,2.999l5.736,3.311
					C190.9,409.724,191.02,409.75,191.145,409.75z"/>
				<path style="fill:#37474F;" d="M195.657,416.115l5.268-2.932l-6.146-3.454l-5.196,3.002l5.704,3.292
					C195.425,416.105,195.592,416.115,195.657,416.115z"/>
				<path style="fill:#37474F;" d="M172.068,395.934l5.735,3.311c0.093,0.046,0.216,0.073,0.338,0.073l5.266-2.932l-6.144-3.452
					L172.068,395.934z"/>
				<path style="fill:#37474F;" d="M202.532,412.149l5.263-2.934l-6.141-3.451l-5.199,2.998l5.73,3.309
					C202.281,412.12,202.408,412.149,202.532,412.149z"/>
				<path style="fill:#37474F;" d="M192.685,384.03l5.73,3.309c0.095,0.049,0.218,0.077,0.345,0.077l5.269-2.929l-6.144-3.454
					L192.685,384.03z"/>
				<path style="fill:#37474F;" d="M199.558,380.062l5.717,3.301c0.098,0.055,0.229,0.086,0.359,0.086l5.266-2.931l-6.144-3.454
					L199.558,380.062z"/>
				<path style="fill:#37474F;" d="M206.431,376.095l5.704,3.294c0.133,0.081,0.288,0.093,0.37,0.093l5.269-2.931l-6.147-3.454
					L206.431,376.095z"/>
				<path style="fill:#37474F;" d="M185.813,387.999l5.705,3.293c0.133,0.081,0.288,0.093,0.368,0.093l5.271-2.931L191.012,385
					L185.813,387.999z"/>
				<path style="fill:#37474F;" d="M213.306,372.129l5.731,3.309c0.045,0.022,0.169,0.075,0.34,0.075l5.269-2.931l-6.147-3.455
					L213.306,372.129z"/>
				<path style="fill:#37474F;" d="M178.94,391.966l5.73,3.308c0.096,0.05,0.223,0.079,0.347,0.079l5.267-2.931l-6.147-3.454
					L178.94,391.966z"/>
				<path style="fill:#37474F;" d="M227.048,364.19l5.743,3.318c0.092,0.044,0.211,0.069,0.329,0.069l5.27-2.931l-6.143-3.454
					L227.048,364.19z"/>
				<path style="fill:#37474F;" d="M244.219,363.246l5.712,3.296c0.131,0.077,0.285,0.088,0.365,0.088l0.211-0.014l5.051-2.917
					l-6.141-3.452L244.219,363.246z"/>
				<path style="fill:#37474F;" d="M281.308,332.867l5.709,3.296c0.137,0.079,0.299,0.088,0.362,0.088l5.269-2.931l-6.144-3.455
					L281.308,332.867z"/>
				<path style="fill:#37474F;" d="M288.18,328.9l5.714,3.295c0.097,0.057,0.227,0.089,0.357,0.089l5.27-2.931l-6.145-3.455
					L288.18,328.9z"/>
				<path style="fill:#37474F;" d="M237.349,367.214l5.716,3.299c0.13,0.074,0.281,0.085,0.358,0.085l5.266-2.932l-6.144-3.454
					L237.349,367.214z"/>
				<path style="fill:#37474F;" d="M295.053,324.931l5.709,3.296c0.137,0.079,0.299,0.088,0.362,0.088l5.269-2.931l-6.144-3.455
					L295.053,324.931z"/>
				<path style="fill:#37474F;" d="M257.168,362.663l0.213-0.014l5.053-2.915l-6.143-3.454l-5.2,2.999l5.713,3.296
					C256.935,362.651,257.088,362.663,257.168,362.663z"/>
				<path style="fill:#37474F;" d="M289.071,337.35l5.701,3.288c0.135,0.086,0.294,0.099,0.376,0.099l5.266-2.932l-6.143-3.454
					L289.071,337.35z"/>
				<path style="fill:#37474F;" d="M302.816,329.414l5.701,3.288c0.14,0.089,0.309,0.099,0.374,0.099l5.269-2.931l-6.144-3.454
					L302.816,329.414z"/>
				<path style="fill:#37474F;" d="M302.022,336.769l5.267-2.931l-6.145-3.454l-5.2,2.999l5.731,3.306
					C301.771,336.74,301.894,336.769,302.022,336.769z"/>
				<path style="fill:#37474F;" d="M323.208,333.249c0.092,0.042,0.21,0.066,0.325,0.066l0.213-0.014l5.052-2.916l-13.907-7.94
					l-5.2,3L323.208,333.249z"/>
				<path style="fill:#37474F;" d="M230.475,371.182l5.711,3.296c0.131,0.077,0.283,0.088,0.362,0.088l0.213-0.014l5.056-2.917
					l-6.144-3.455L230.475,371.182z"/>
				<path style="fill:#37474F;" d="M309.788,341.251l0.214-0.014l5.052-2.918l-6.143-3.451l-5.2,2.998l5.713,3.295
					C309.556,341.24,309.709,341.251,309.788,341.251z"/>
				<path style="fill:#37474F;" d="M316.661,337.284l5.269-2.932l-6.146-3.452l-5.199,2.999l5.696,3.286
					C316.415,337.271,316.577,337.284,316.661,337.284z"/>
				<path style="fill:#37474F;" d="M196.111,391.022l5.705,3.292c0.133,0.081,0.29,0.093,0.372,0.093l5.266-2.932l-6.143-3.455
					L196.111,391.022z"/>
				<path style="fill:#37474F;" d="M182.369,398.958l5.702,3.292c0.133,0.081,0.289,0.093,0.37,0.093l0.213-0.014l5.055-2.918
					l-6.144-3.454L182.369,398.958z"/>
				<path style="fill:#37474F;" d="M204.893,401.816l5.267-2.931l-6.147-3.454l-5.197,2.998l5.741,3.312
					C204.612,401.769,204.731,401.816,204.893,401.816z"/>
				<path style="fill:#37474F;" d="M198.018,405.782l5.269-2.929l-6.146-3.454l-5.196,2.999l5.736,3.312
					C197.774,405.756,197.894,405.782,198.018,405.782z"/>
				<path style="fill:#37474F;" d="M211.763,397.846l0.213-0.014l5.055-2.915l-6.143-3.455l-5.2,2.999l5.705,3.291
					C211.531,397.837,211.697,397.846,211.763,397.846z"/>
				<path style="fill:#37474F;" d="M223.601,375.15l5.719,3.299c0.095,0.054,0.225,0.085,0.356,0.085l0.213-0.014l5.053-2.918
					l-6.141-3.452L223.601,375.15z"/>
				<path style="fill:#37474F;" d="M225.508,389.913l5.268-2.931l-6.143-3.454l-5.2,2.998l5.705,3.294
					C225.276,389.903,225.442,389.913,225.508,389.913z"/>
				<path style="fill:#37474F;" d="M218.638,393.88l5.267-2.931l-6.145-3.454l-5.199,2.999l5.736,3.311
					C218.393,393.853,218.517,393.88,218.638,393.88z"/>
				<path style="fill:#37474F;" d="M209.856,383.086l5.705,3.291c0.133,0.081,0.291,0.093,0.372,0.093l5.266-2.932l-6.144-3.454
					L209.856,383.086z"/>
				<path style="fill:#37474F;" d="M189.239,394.99l5.704,3.291c0.133,0.081,0.29,0.093,0.372,0.093l5.266-2.932l-6.144-3.454
					L189.239,394.99z"/>
				<path style="fill:#37474F;" d="M216.73,379.118l5.711,3.296c0.131,0.077,0.285,0.088,0.365,0.088l5.266-2.932l-6.144-3.454
					L216.73,379.118z"/>
				<path style="fill:#37474F;" d="M202.986,387.054l5.702,3.292c0.133,0.081,0.29,0.093,0.372,0.093l0.213-0.014l5.053-2.918
					l-6.144-3.454L202.986,387.054z"/>
				<path style="fill:#37474F;" d="M232.378,385.944l5.27-2.931l-6.145-3.454l-5.199,2.999l5.726,3.306
					C232.127,385.916,232.251,385.944,232.378,385.944z"/>
				<path style="fill:#37474F;" d="M272.986,337.669l5.736,3.311c0.095,0.047,0.215,0.073,0.338,0.073l5.266-2.932l-6.143-3.454
					L272.986,337.669z"/>
				<path style="fill:#37474F;" d="M163.519,400.872l-5.199,2.998l5.738,3.312c0.094,0.047,0.214,0.073,0.338,0.073l0.213-0.014
					l5.056-2.918L163.519,400.872z"/>
				<path style="fill:#37474F;" d="M173.82,403.893l-7.73,4.462l5.736,3.311c0.095,0.047,0.215,0.073,0.338,0.073l0.213-0.014
					l7.586-4.379L173.82,403.893z"/>
				<path style="fill:#37474F;" d="M155.178,394.801l-6.285,3.626l5.712,3.296c0.132,0.077,0.285,0.088,0.365,0.088l6.352-3.556
					L155.178,394.801z"/>
				<path style="fill:#37474F;" d="M187.909,413.697l-6.282,3.628l5.702,3.292c0.138,0.084,0.305,0.093,0.37,0.093l6.354-3.559
					L187.909,413.697z"/>
				<path style="fill:#37474F;" d="M183.395,407.335l-9.538,5.505l5.736,3.312c0.094,0.047,0.214,0.073,0.338,0.073l0.213-0.014
					l9.396-5.425L183.395,407.335z"/>
				<path style="fill:#37474F;" d="M165.917,395.493l5.268-2.932l-6.144-3.454l-5.199,2.998l5.705,3.294
					C165.68,395.48,165.835,395.493,165.917,395.493z"/>
				<path style="fill:#37474F;" d="M189.394,421.81l5.71,3.296c0.097,0.056,0.228,0.088,0.36,0.088l7.799-4.396l-6.142-3.452
					L189.394,421.81z"/>
				<path style="fill:#37474F;" d="M172.791,391.524l5.266-2.932l-6.144-3.454l-5.195,3.001l5.733,3.311
					C172.545,391.499,172.666,391.524,172.791,391.524z"/>
				<path style="fill:#37474F;" d="M203.269,373.926l0.213-0.014l5.056-2.918l-6.144-3.454l-5.196,3.001l5.716,3.299
					C203.008,373.895,203.138,373.926,203.269,373.926z"/>
				<path style="fill:#37474F;" d="M210.144,369.958l5.266-2.932l-6.144-3.454l-5.198,3.001l5.718,3.299
					C209.916,369.947,210.066,369.958,210.144,369.958z"/>
				<path style="fill:#37474F;" d="M196.396,377.894l0.213-0.014l5.056-2.918l-6.144-3.454l-5.199,3.001l5.705,3.291
					C196.165,377.885,196.331,377.894,196.396,377.894z"/>
				<path style="fill:#37474F;" d="M186.534,383.588l0.213-0.014l5.055-2.918l-6.144-3.454l-5.196,3.001l5.715,3.299
					C186.273,383.558,186.403,383.588,186.534,383.588z"/>
				<path style="fill:#37474F;" d="M179.662,387.557l5.268-2.932l-6.144-3.455l-5.196,3.001l5.727,3.308
					C179.412,387.529,179.535,387.557,179.662,387.557z"/>
				<path style="fill:#37474F;" d="M326.125,342.869l5.745,3.318c0.092,0.042,0.21,0.066,0.325,0.066l0.213-0.014l5.056-2.918
					l-6.144-3.454L326.125,342.869z"/>
				<path style="fill:#37474F;" d="M290.31,363.543l5.705,3.29c0.134,0.084,0.289,0.097,0.37,0.097l5.268-2.931l-6.143-3.454
					L290.31,363.543z"/>
				<path style="fill:#37474F;" d="M312.376,350.805l5.711,3.295c0.137,0.081,0.3,0.089,0.363,0.089l0.213-0.014l11.928-6.886
					l-6.143-3.454L312.376,350.805z"/>
				<path style="fill:#37474F;" d="M297.183,359.575l5.7,3.288c0.134,0.084,0.294,0.097,0.377,0.097l5.267-2.929l-6.145-3.454
					L297.183,359.575z"/>
				<path style="fill:#37474F;" d="M304.056,355.607l5.68,3.277c0.139,0.095,0.309,0.109,0.397,0.109l5.266-2.931l-6.143-3.454
					L304.056,355.607z"/>
				<path style="fill:#37474F;" d="M217.014,365.99l0.213-0.014l5.056-2.918l-6.144-3.454l-5.198,3.001l5.704,3.292
					C216.777,365.978,216.933,365.99,217.014,365.99z"/>
				<path style="fill:#37474F;" d="M330.426,331.414l-5.199,3.002l13.516,7.803c0.093,0.043,0.208,0.066,0.326,0.066l0.213-0.014
					l5.051-2.917L330.426,331.414z"/>
				<path style="fill:#37474F;" d="M206.757,411.786l5.702,3.291c0.138,0.084,0.305,0.093,0.37,0.093l6.352-3.559l-6.141-3.455
					L206.757,411.786z"/>
				<path style="fill:#37474F;" d="M214.715,407.191l5.693,3.286c0.135,0.086,0.295,0.099,0.378,0.099l0.213-0.014l39.056-22.546
					l-6.144-3.457L214.715,407.191z"/>
				<path style="fill:#37474F;" d="M216.275,404.211l5.268-2.929l-6.144-3.454l-5.199,2.998l5.73,3.309
					C216.025,404.184,216.148,404.211,216.275,404.211z"/>
				<path style="fill:#37474F;" d="M198.798,416.379l5.704,3.293c0.133,0.081,0.288,0.093,0.368,0.093l6.354-3.559l-6.144-3.454
					L198.798,416.379z"/>
				<path style="fill:#37474F;" d="M255.586,383.592l5.712,3.296c0.132,0.077,0.284,0.088,0.364,0.088l0.213-0.014l6.14-3.543
					l-6.146-3.454L255.586,383.592z"/>
				<path style="fill:#37474F;" d="M271.503,374.404l5.723,3.305c0.129,0.069,0.275,0.08,0.352,0.08l0.213-0.014l6.139-3.545
					l-6.144-3.455L271.503,374.404z"/>
				<path style="fill:#37474F;" d="M263.545,378.997l5.735,3.311c0.096,0.048,0.22,0.075,0.341,0.075l6.353-3.561l-6.147-3.452
					L263.545,378.997z"/>
				<path style="fill:#37474F;" d="M279.459,369.809l5.712,3.296c0.132,0.077,0.284,0.088,0.364,0.088l0.213-0.014l7.584-4.379
					l-6.142-3.455L279.459,369.809z"/>
				<path style="fill:#37474F;" d="M286.828,345.539l0.213-0.014l5.055-2.918l-6.143-3.454l-5.199,3.001l5.724,3.305
					C286.574,345.51,286.698,345.539,286.828,345.539z"/>
				<path style="fill:#37474F;" d="M295.49,358.477l0.213-0.014l5.055-2.918l-6.143-3.454l-5.199,2.998l5.723,3.308
					C295.268,358.466,295.414,358.477,295.49,358.477z"/>
				<path style="fill:#37474F;" d="M271.258,372.469l14.308-8.154l-6.143-3.454l-14.24,8.221l5.74,3.312
					C270.967,372.417,271.091,372.469,271.258,372.469z"/>
				<path style="fill:#37474F;" d="M310.684,349.705l0.213-0.014l5.055-2.921l-6.145-3.451l-5.197,3.001l5.735,3.311
					C310.44,349.679,310.56,349.705,310.684,349.705z"/>
				<path style="fill:#37474F;" d="M317.556,345.736l0.213-0.014l5.053-2.917l-6.143-3.455l-5.197,3.002l5.723,3.305
					C317.333,345.726,317.479,345.736,317.556,345.736z"/>
				<path style="fill:#37474F;" d="M264.38,376.437l5.271-2.931l-6.144-3.454l-5.199,2.998l5.71,3.298
					C264.114,376.404,264.246,376.437,264.38,376.437z"/>
				<path style="fill:#37474F;" d="M302.916,345.219l0.213-0.014l5.054-2.918l-6.145-3.452l-5.199,2.999l5.696,3.286
					C302.67,345.207,302.831,345.219,302.916,345.219z"/>
				<path style="fill:#37474F;" d="M230.02,396.275l5.266-2.932l-6.142-3.452l-5.199,2.999l5.73,3.308
					C229.77,396.248,229.893,396.275,230.02,396.275z"/>
				<path style="fill:#37474F;" d="M257.513,380.405l5.263-2.934l-6.141-3.452l-5.198,2.999l5.748,3.318
					C257.229,380.357,257.35,380.405,257.513,380.405z"/>
				<path style="fill:#37474F;" d="M223.148,400.243l0.213-0.014l5.052-2.918l-6.141-3.451l-5.199,2.998l5.736,3.311
					C222.904,400.217,223.024,400.243,223.148,400.243z"/>
				<path style="fill:#37474F;" d="M236.895,392.309l5.266-2.931l-6.143-3.454l-5.199,2.999l5.754,3.318
					C236.627,392.266,236.743,392.309,236.895,392.309z"/>
				<path style="fill:#37474F;" d="M243.765,388.339l0.213-0.014l5.052-2.918l-6.141-3.452l-5.199,2.999l5.705,3.291
					C243.528,388.327,243.684,388.339,243.765,388.339z"/>
				<path style="fill:#37474F;" d="M250.638,384.371l0.213-0.014l5.056-2.915l-6.144-3.454l-5.199,2.998l5.736,3.312
					C250.393,384.345,250.513,384.371,250.638,384.371z"/>
				<path style="fill:#37474F;" d="M233.752,356.328l5.266-2.932l-6.144-3.451l-5.199,2.999l5.705,3.292
					C233.513,356.315,233.67,356.328,233.752,356.328z"/>
				<path style="fill:#37474F;" d="M324.429,341.769l0.213-0.014l5.056-2.918l-6.146-3.454l-5.196,3.001l5.735,3.311
					C324.185,341.743,324.305,341.769,324.429,341.769z"/>
				<path style="fill:#37474F;" d="M247.497,348.392l5.266-2.932l-6.144-3.452l-5.199,2.999l5.704,3.291
					C247.258,348.379,247.415,348.392,247.497,348.392z"/>
				<path style="fill:#37474F;" d="M262.762,339.579l5.266-2.932l-6.144-3.455l-5.198,3.001l5.712,3.296
					C262.529,339.567,262.683,339.579,262.762,339.579z"/>
				<path style="fill:#37474F;" d="M255.89,343.547l5.265-2.932l-6.143-3.454l-5.199,3.001l5.712,3.296
					C255.656,343.535,255.81,343.547,255.89,343.547z"/>
				<path style="fill:#37474F;" d="M226.879,360.295l5.266-2.932l-6.144-3.454l-5.196,3.001l5.716,3.299
					C226.651,360.284,226.802,360.295,226.879,360.295z"/>
				<path style="fill:#37474F;" d="M240.624,352.359l0.212-0.014l5.053-2.918l-6.144-3.451l-5.199,2.999l5.705,3.292
					C240.385,352.347,240.542,352.359,240.624,352.359z"/>
				<path style="fill:#37474F;" d="M269.635,335.611l5.265-2.932l-6.143-3.454l-5.199,3.001l5.712,3.295
					C269.401,335.599,269.555,335.611,269.635,335.611z"/>
				<path style="fill:#37474F;" d="M296.578,317.754l5.264-2.934l-3.34-1.804l-5.203,3.003l2.926,1.652
					C296.322,317.724,296.45,317.754,296.578,317.754z"/>
				<path style="fill:#37474F;" d="M307.997,324.348l5.268-2.931l-6.145-3.455l-5.196,3.001l5.708,3.295
					C307.77,324.339,307.933,324.348,307.997,324.348z"/>
				<path style="fill:#37474F;" d="M275.958,329.655l0.214-0.014l5.049-2.918l-3.337-1.804l-5.199,3.003l2.909,1.644
					C275.726,329.644,275.878,329.655,275.958,329.655z"/>
				<path style="fill:#37474F;" d="M282.831,325.688l0.213-0.014l5.049-2.918l-3.336-1.804l-5.2,3.003l2.937,1.659
					C282.586,325.661,282.709,325.688,282.831,325.688z"/>
				<path style="fill:#37474F;" d="M289.703,321.72l5.263-2.932l-3.337-1.804l-5.199,3.003l2.936,1.659
					C289.458,321.693,289.582,321.72,289.703,321.72z"/>
			</g>
		</g>
	</g>
</g>
<g id="Windows">
	<g>
		<g id="XMLID_392_">
			<g id="XMLID_2378_" style="opacity:0.8;">
				<g>
					<g id="XMLID_17_">
						<path style="fill:#455A64;" d="M297.525,62.755V211.21c0,1.973-1.387,4.361-3.086,5.343L94.346,332.294
							c-0.354,0.202-0.708,0.303-1.022,0.293c-0.132,0-0.263-0.02-0.395-0.051c-0.091-0.02-0.182-0.051-0.263-0.091
							c-0.061-0.03-0.111-0.061-0.162-0.091c-0.061-0.041-0.121-0.081-0.182-0.122c-0.061-0.051-0.121-0.091-0.172-0.152
							c-0.243-0.223-0.425-0.496-0.567-0.81c-0.202-0.455-0.324-0.992-0.324-1.558V182.007c0-1.963,1.386-4.361,3.086-5.343
							l200.092-115.69c0.8-0.455,1.518-0.526,2.075-0.263c0.091,0.041,0.182,0.091,0.263,0.152c0.01,0.01,0.02,0.02,0.02,0.02
							c0.081,0.061,0.142,0.121,0.202,0.202c0.04,0.03,0.061,0.071,0.091,0.111c0.04,0.051,0.081,0.101,0.101,0.162
							c0.081,0.121,0.142,0.253,0.182,0.395c0.03,0.081,0.061,0.172,0.071,0.273c0.01,0.02,0.02,0.04,0.01,0.061
							c0.03,0.091,0.04,0.182,0.051,0.283C297.515,62.492,297.525,62.624,297.525,62.755z"/>
						<path style="fill:#455A64;" d="M295.807,61.558c0.107,0,0.198,0.019,0.298,0.066c0.013,0.006,0.025,0.011,0.034,0.016
							l0.002,0.002l0.058,0.043l0.084,0.112l0.001,0.005l0.074,0.111c0.01,0.014,0.018,0.029,0.026,0.044l-0.017,0.031l0.097,0.29
							l0.003,0.032l0.022,0.044l0.009,0.026c0.005,0.028,0.007,0.057,0.009,0.072c0.008,0.095,0.017,0.198,0.017,0.302V211.21
							c0,1.617-1.185,3.667-2.587,4.477L93.85,331.426c-0.251,0.144-0.416,0.162-0.52,0.162c-0.002,0-0.004,0-0.006,0
							c-0.041,0-0.098-0.008-0.209-0.035c-0.028-0.014-0.051-0.028-0.075-0.042l-0.127-0.085l-0.022-0.018l-0.014-0.017
							l-0.051-0.047c-0.129-0.118-0.237-0.276-0.328-0.478c-0.156-0.35-0.238-0.748-0.238-1.152V182.007
							c0-1.617,1.185-3.667,2.587-4.477L294.933,61.843C295.26,61.657,295.562,61.558,295.807,61.558 M295.807,60.558
							c-0.413,0-0.875,0.135-1.369,0.416L94.346,176.664c-1.7,0.982-3.086,3.38-3.086,5.343v147.706
							c0,0.567,0.122,1.103,0.324,1.558c0.141,0.314,0.324,0.587,0.567,0.81c0.05,0.061,0.111,0.101,0.172,0.152
							c0.061,0.04,0.122,0.081,0.182,0.122c0.051,0.03,0.101,0.061,0.162,0.091c0.081,0.04,0.172,0.071,0.263,0.091
							c0.132,0.03,0.263,0.051,0.395,0.051c0.014,0,0.029,0.001,0.043,0.001c0.303,0,0.641-0.101,0.979-0.294l200.092-115.741
							c1.7-0.982,3.086-3.37,3.086-5.343V62.755c0-0.132-0.01-0.263-0.02-0.385c-0.01-0.101-0.02-0.192-0.051-0.283
							c0.01-0.02,0-0.041-0.01-0.061c-0.01-0.101-0.04-0.192-0.071-0.273c-0.04-0.142-0.101-0.273-0.182-0.395
							c-0.02-0.061-0.061-0.111-0.101-0.162c-0.03-0.041-0.05-0.081-0.091-0.111c-0.061-0.081-0.122-0.142-0.203-0.202
							c0,0-0.01-0.01-0.02-0.02c-0.081-0.061-0.172-0.111-0.263-0.152C296.3,60.61,296.063,60.558,295.807,60.558L295.807,60.558z"
							/>
					</g>
				</g>
				<g>
					<g id="XMLID_16_" style="opacity:0.7;">
						<path style="fill:#455A64;" d="M297.525,62.755V211.21c0,1.973-1.387,4.361-3.086,5.343L94.346,332.294
							c-0.354,0.202-0.708,0.303-1.022,0.293c-0.132,0-0.263-0.02-0.395-0.051c-0.091-0.02-0.182-0.051-0.263-0.091
							c-0.061-0.03-0.111-0.061-0.162-0.091c-0.061-0.041-0.121-0.081-0.182-0.122c-0.061-0.051-0.121-0.091-0.172-0.152
							c-0.243-0.223-0.425-0.496-0.567-0.81c-0.202-0.455-0.324-0.992-0.324-1.558V182.007c0-1.963,1.386-4.361,3.086-5.343
							l200.092-115.69c0.8-0.455,1.518-0.526,2.075-0.263c0.091,0.041,0.182,0.091,0.263,0.152c0.01,0.01,0.02,0.02,0.02,0.02
							c0.081,0.061,0.142,0.121,0.202,0.202c0.04,0.03,0.061,0.071,0.091,0.111c0.04,0.051,0.081,0.101,0.101,0.162
							c0.081,0.121,0.142,0.253,0.182,0.395c0.03,0.081,0.061,0.172,0.071,0.273c0.01,0.02,0.02,0.04,0.01,0.061
							c0.03,0.091,0.04,0.182,0.051,0.283C297.515,62.492,297.525,62.624,297.525,62.755z"/>
					</g>
				</g>
			</g>
			<g id="XMLID_2368_">
				<g id="XMLID_2292_">
					<path style="fill:#27DEBF;" d="M296.513,60.711c-0.557-0.263-1.275-0.192-2.075,0.263L94.346,176.664
						c-1.7,0.982-3.086,3.38-3.086,5.343v10.078l-3.936-2.307v-10.008c0-1.963,1.376-4.351,3.076-5.333l200.103-115.69
						c0.88-0.516,1.67-0.526,2.236-0.182C293.295,58.9,295.855,60.367,296.513,60.711z"/>
				</g>
				<path id="XMLID_2375_" style="fill:#27DEBF;" d="M297.518,62.734c-0.012-1.947-1.385-2.735-3.08-1.756L94.344,176.667
					c-1.702,0.983-3.082,3.373-3.082,5.339l0.003,10.083L297.518,72.852V62.734z"/>
				<g id="XMLID_2373_" style="opacity:0.4;">
					<path style="fill:#FFFFFF;" d="M294.436,60.977L94.348,176.666c-0.843,0.494-1.619,1.328-2.172,2.288l-3.917-2.269
						c0.553-0.95,1.311-1.776,2.145-2.251L290.499,58.745c0.882-0.514,1.668-0.522,2.24-0.183c0.553,0.339,3.112,1.794,3.762,2.143
						C295.958,60.444,295.231,60.521,294.436,60.977z"/>
				</g>
				<path id="XMLID_2369_" style="opacity:0.15;" d="M87.319,189.791l0.002-10.022c0-0.999,0.366-2.104,0.938-3.083l3.927,2.259
					c-0.572,0.97-0.921,2.065-0.921,3.064v10.082L87.319,189.791z"/>
			</g>
			<g id="XMLID_2325_">
				<path id="XMLID_2332_" style="fill:#455A64;" d="M278.949,74.213c-0.962,0.555-1.742,2.206-1.742,3.687
					c0,1.481,0.78,2.231,1.742,1.676c0.962-0.555,1.742-2.206,1.742-3.687C280.691,74.407,279.911,73.657,278.949,74.213z"/>
				<path id="XMLID_2331_" style="fill:#455A64;" d="M285.22,70.585c-0.962,0.555-1.742,2.206-1.742,3.687
					c0,1.481,0.78,2.231,1.742,1.676c0.962-0.555,1.742-2.206,1.742-3.687C286.962,70.78,286.182,70.03,285.22,70.585z"/>
				<path id="XMLID_2330_" style="fill:#455A64;" d="M291.491,66.958c-0.962,0.555-1.742,2.206-1.742,3.687
					c0,1.481,0.78,2.231,1.742,1.676c0.962-0.555,1.742-2.206,1.742-3.687S292.453,66.403,291.491,66.958z"/>
			</g>
			<path id="XMLID_2294_" style="opacity:0.9;fill:#37474F;" d="M92.393,332.304c-0.111-0.071-0.243-0.142-0.385-0.223
				c-0.283-0.172-0.607-0.354-0.951-0.536l-0.01-0.01c-0.172-0.101-0.344-0.202-0.516-0.293c-0.01-0.01-0.03-0.02-0.041-0.02
				c-0.283-0.162-0.557-0.324-0.81-0.466c-0.263-0.152-0.496-0.283-0.678-0.385c-0.182-0.111-0.324-0.182-0.385-0.212
				c-0.192-0.101-0.374-0.243-0.526-0.425c-0.162-0.172-0.304-0.384-0.415-0.627c-0.222-0.466-0.354-1.032-0.354-1.629V189.778
				l3.936,2.307v137.628c0.03,0.607,0.142,1.123,0.324,1.558c0.141,0.314,0.324,0.587,0.567,0.81
				c0.041,0.061,0.101,0.111,0.172,0.152C92.342,332.263,92.363,332.284,92.393,332.304z"/>
		</g>
		<g id="XMLID_394_">
			<g id="XMLID_387_">
				<path id="XMLID_338_" style="fill:#263238;" d="M158.153,243.469c0,0-7.284-4.71-8.226-4.74
					c-0.942-0.03-20.693-0.65-20.693-0.65l8.226,4.378v0.362L158.153,243.469z"/>
				<path id="XMLID_2346_" style="fill:#FAFAFA;" d="M122.668,257.658v-12.961l35.484-44.106v17.2l-20.692,24.666v0.362l20.692,0.65
					v17.2L122.668,257.658z"/>
				<polygon id="XMLID_259_" style="fill:#455A64;" points="158.153,200.591 149.927,195.851 114.443,239.957 122.668,244.697 				
					"/>
				<polygon id="XMLID_332_" style="fill:#37474F;" points="114.443,239.957 114.443,252.918 122.668,257.658 122.668,244.697 				
					"/>
			</g>
			<g id="XMLID_389_">
				<path id="XMLID_2362_" style="fill:#FAFAFA;" d="M179.631,252.147l-11.015,6.359l27.46-100.644l10.622-6.133L179.631,252.147z"
					/>
				<polygon id="XMLID_365_" style="fill:#455A64;" points="206.697,151.729 198.472,146.99 187.85,153.122 196.075,157.862 				"/>
				<polygon id="XMLID_375_" style="fill:#37474F;" points="187.85,153.122 196.075,157.862 168.616,258.506 160.39,253.766 				"/>
			</g>
			<g id="XMLID_391_">
				<polygon id="XMLID_377_" style="fill:#263238;" points="208.935,204.662 217.161,209.402 237.853,184.495 229.627,179.756 				
					"/>
				<g id="XMLID_2333_">
					<path id="XMLID_2366_" style="fill:#FAFAFA;" d="M237.853,184.495l-20.691-0.772v-17.2l35.484,3.133v12.961l-35.484,43.985
						v-17.2l20.691-24.544V184.495z"/>
				</g>
				<polygon id="XMLID_376_" style="fill:#455A64;" points="208.935,161.783 217.161,166.523 252.645,169.656 244.419,164.916 				
					"/>
				<polyline id="XMLID_384_" style="fill:#37474F;" points="217.161,166.523 217.161,183.723 208.935,178.984 208.935,161.783 				
					"/>
				<polygon id="XMLID_385_" style="fill:#37474F;" points="208.935,204.662 217.161,209.402 217.161,226.602 208.935,221.863 				
					"/>
			</g>
		</g>
	</g>
	<g id="XMLID_2070_">
		<g id="XMLID_397_">
			<g id="XMLID_2295_" style="opacity:0.8;">
				<g>
					<g id="XMLID_15_">
						<path style="fill:#455A64;" d="M362.128,88.358v148.455c0,1.973-1.386,4.361-3.086,5.343l-85.287,49.208
							c-0.354,0.202-0.708,0.303-1.022,0.293c-0.132,0-0.263-0.02-0.395-0.051c-0.091-0.02-0.182-0.051-0.263-0.091
							c-0.06-0.03-0.111-0.061-0.162-0.091c-0.06-0.04-0.121-0.081-0.182-0.121c-0.061-0.051-0.121-0.091-0.172-0.152
							c-0.243-0.223-0.425-0.496-0.567-0.81c-0.202-0.455-0.324-0.992-0.324-1.558V141.077c0-1.963,1.386-4.361,3.086-5.343
							l85.287-49.157c0.799-0.455,1.518-0.526,2.074-0.263c0.091,0.04,0.182,0.091,0.263,0.152c0.01,0.01,0.02,0.02,0.02,0.02
							c0.081,0.061,0.142,0.121,0.202,0.202c0.04,0.03,0.061,0.071,0.091,0.111c0.041,0.051,0.081,0.101,0.101,0.162
							c0.081,0.121,0.142,0.253,0.182,0.395c0.03,0.081,0.061,0.172,0.071,0.273c0.01,0.02,0.02,0.041,0.01,0.061
							c0.03,0.091,0.041,0.182,0.051,0.283C362.118,88.095,362.128,88.227,362.128,88.358z"/>
						<path style="fill:#455A64;" d="M360.41,87.162c0.107,0,0.198,0.019,0.299,0.066c0.013,0.006,0.024,0.011,0.034,0.017
							l0.001,0.001l0.057,0.043l0.085,0.113l0.001,0.003l0.075,0.112c0.009,0.014,0.017,0.028,0.025,0.042l-0.017,0.03l0.098,0.295
							l0.003,0.029l0.02,0.041l0.01,0.031c0.006,0.028,0.007,0.057,0.009,0.07c0.008,0.096,0.017,0.199,0.017,0.303v148.455
							c0,1.617-1.184,3.667-2.586,4.477l-85.283,49.206c-0.251,0.144-0.416,0.162-0.52,0.162c-0.002,0-0.004,0-0.006,0
							c-0.041,0-0.098-0.008-0.209-0.035c-0.027-0.014-0.051-0.027-0.075-0.042l-0.127-0.085l-0.023-0.018l-0.014-0.017l-0.05-0.046
							c-0.129-0.118-0.237-0.276-0.328-0.478c-0.156-0.35-0.238-0.748-0.238-1.152V141.077c0-1.617,1.184-3.667,2.586-4.476
							l85.282-49.155C359.863,87.26,360.165,87.162,360.41,87.162 M360.41,86.162c-0.413,0-0.875,0.135-1.369,0.416l-85.287,49.157
							c-1.7,0.982-3.086,3.38-3.086,5.343v147.707c0,0.567,0.122,1.103,0.324,1.558c0.142,0.314,0.324,0.587,0.567,0.81
							c0.05,0.061,0.111,0.101,0.172,0.152c0.061,0.04,0.122,0.081,0.182,0.121c0.051,0.03,0.101,0.061,0.162,0.091
							c0.081,0.04,0.172,0.071,0.263,0.091c0.131,0.03,0.263,0.051,0.395,0.051c0.014,0,0.029,0.001,0.043,0.001
							c0.303,0,0.641-0.101,0.979-0.294l85.287-49.208c1.7-0.981,3.086-3.37,3.086-5.343V88.358c0-0.132-0.01-0.263-0.02-0.385
							c-0.01-0.101-0.02-0.192-0.051-0.283c0.01-0.02,0-0.04-0.01-0.061c-0.01-0.101-0.041-0.192-0.071-0.273
							c-0.04-0.142-0.101-0.273-0.182-0.395c-0.02-0.061-0.061-0.111-0.101-0.162c-0.03-0.041-0.05-0.081-0.091-0.111
							c-0.061-0.081-0.121-0.142-0.202-0.202c0,0-0.01-0.01-0.02-0.02c-0.081-0.061-0.172-0.111-0.263-0.152
							C360.903,86.214,360.666,86.162,360.41,86.162L360.41,86.162z"/>
					</g>
				</g>
				<g>
					<g id="XMLID_14_" style="opacity:0.8;">
						<path style="fill:#455A64;" d="M362.128,88.358v148.455c0,1.973-1.386,4.361-3.086,5.343l-85.287,49.208
							c-0.354,0.202-0.708,0.303-1.022,0.293c-0.132,0-0.263-0.02-0.395-0.051c-0.091-0.02-0.182-0.051-0.263-0.091
							c-0.06-0.03-0.111-0.061-0.162-0.091c-0.06-0.04-0.121-0.081-0.182-0.121c-0.061-0.051-0.121-0.091-0.172-0.152
							c-0.243-0.223-0.425-0.496-0.567-0.81c-0.202-0.455-0.324-0.992-0.324-1.558V141.077c0-1.963,1.386-4.361,3.086-5.343
							l85.287-49.157c0.799-0.455,1.518-0.526,2.074-0.263c0.091,0.04,0.182,0.091,0.263,0.152c0.01,0.01,0.02,0.02,0.02,0.02
							c0.081,0.061,0.142,0.121,0.202,0.202c0.04,0.03,0.061,0.071,0.091,0.111c0.041,0.051,0.081,0.101,0.101,0.162
							c0.081,0.121,0.142,0.253,0.182,0.395c0.03,0.081,0.061,0.172,0.071,0.273c0.01,0.02,0.02,0.041,0.01,0.061
							c0.03,0.091,0.041,0.182,0.051,0.283C362.118,88.095,362.128,88.227,362.128,88.358z"/>
					</g>
				</g>
			</g>
			<g id="XMLID_411_">
				<g id="XMLID_962_">
					<path style="fill:#27DEBF;" d="M361.116,86.314c-0.557-0.263-1.275-0.192-2.074,0.263l-85.287,49.157
						c-1.7,0.982-3.086,3.38-3.086,5.343v10.079l-3.936-2.307v-10.008c0-1.963,1.376-4.351,3.076-5.333l85.297-49.157
						c0.88-0.516,1.67-0.526,2.236-0.182C357.898,84.503,360.458,85.97,361.116,86.314z"/>
				</g>
				<path id="XMLID_961_" style="fill:#27DEBF;" d="M362.121,88.338c-0.012-1.947-1.385-2.735-3.08-1.756l-85.287,49.156
					c-1.702,0.983-3.082,3.373-3.082,5.339l0.003,10.083l91.447-52.705V88.338z"/>
				<g id="XMLID_952_" style="opacity:0.4;">
					<path style="fill:#FFFFFF;" d="M359.039,86.58l-85.283,49.156c-0.843,0.494-1.619,1.328-2.172,2.288l-3.917-2.269
						c0.553-0.95,1.311-1.776,2.145-2.251l85.29-49.156c0.882-0.514,1.668-0.522,2.24-0.183c0.553,0.339,3.112,1.794,3.762,2.143
						C360.561,86.047,359.834,86.125,359.039,86.58z"/>
				</g>
				<path id="XMLID_951_" style="opacity:0.15;" d="M266.728,148.861l0.002-10.022c0-0.999,0.366-2.104,0.938-3.083l3.927,2.259
					c-0.572,0.97-0.921,2.065-0.921,3.064v10.082L266.728,148.861z"/>
			</g>
			<g id="XMLID_399_">
				<path id="XMLID_409_" style="fill:#455A64;" d="M343.552,99.816c-0.962,0.555-1.742,2.206-1.742,3.687
					c0,1.481,0.78,2.231,1.742,1.676c0.962-0.556,1.742-2.206,1.742-3.687C345.294,100.011,344.514,99.26,343.552,99.816z"/>
				<path id="XMLID_401_" style="fill:#455A64;" d="M349.823,96.189c-0.962,0.555-1.742,2.206-1.742,3.687s0.78,2.231,1.742,1.676
					c0.962-0.556,1.742-2.206,1.742-3.687C351.565,96.384,350.785,95.633,349.823,96.189z"/>
				<path id="XMLID_400_" style="fill:#455A64;" d="M356.094,92.562c-0.962,0.556-1.742,2.206-1.742,3.687
					c0,1.481,0.78,2.231,1.742,1.676c0.962-0.555,1.742-2.206,1.742-3.687C357.836,92.757,357.056,92.006,356.094,92.562z"/>
			</g>
			<path id="XMLID_398_" style="opacity:0.9;fill:#37474F;" d="M271.802,291.374c-0.111-0.071-0.243-0.142-0.385-0.223
				c-0.283-0.172-0.607-0.354-0.951-0.536l-0.01-0.01c-0.172-0.101-0.344-0.202-0.516-0.293c-0.01-0.01-0.03-0.02-0.041-0.02
				c-0.283-0.162-0.557-0.324-0.81-0.466c-0.263-0.152-0.496-0.283-0.678-0.384c-0.182-0.111-0.324-0.182-0.385-0.212
				c-0.192-0.101-0.374-0.243-0.526-0.425c-0.162-0.172-0.304-0.385-0.415-0.627c-0.223-0.465-0.354-1.032-0.354-1.629V148.849
				l3.936,2.307v137.628c0.03,0.607,0.142,1.123,0.324,1.558c0.142,0.314,0.324,0.587,0.567,0.81
				c0.04,0.061,0.101,0.111,0.172,0.152C271.751,291.334,271.772,291.354,271.802,291.374z"/>
		</g>
		<g id="XMLID_2042_">
			<g id="XMLID_396_">
				<path id="XMLID_2053_" style="fill:#27DEBF;" d="M278.244,159.533c0-0.185,0.052-0.377,0.157-0.576l2.216-4.587
					c0.037-0.067,0.07-0.112,0.101-0.135c0.03-0.023,0.048-0.037,0.056-0.042c0.066-0.038,0.125-0.035,0.174,0.012
					c0.048,0.047,0.073,0.122,0.073,0.225v1.541c0,0.196-0.015,0.355-0.046,0.476c-0.03,0.121-0.082,0.261-0.157,0.42l-1.169,2.424
					l1.169,1.073c0.075,0.072,0.128,0.152,0.157,0.238c0.031,0.087,0.046,0.228,0.046,0.424v1.541c0,0.104-0.025,0.208-0.073,0.311
					c-0.049,0.103-0.108,0.174-0.174,0.213c-0.008,0.004-0.027,0.012-0.056,0.024c-0.031,0.011-0.064,0.005-0.101-0.02l-2.216-2.028
					c-0.105-0.078-0.157-0.208-0.157-0.393V159.533z"/>
				<path id="XMLID_2055_" style="fill:#27DEBF;" d="M286.352,148.03c0.038-0.148,0.093-0.299,0.168-0.452
					c0.075-0.153,0.184-0.27,0.326-0.352l0.832-0.48c0.067-0.039,0.125-0.035,0.175,0.012c0.048,0.047,0.072,0.122,0.072,0.226
					c0,0.046-0.007,0.103-0.022,0.169l-3.8,16.201c-0.03,0.133-0.083,0.279-0.158,0.438c-0.075,0.158-0.187,0.281-0.337,0.368
					l-0.798,0.461c-0.067,0.039-0.125,0.035-0.174-0.012c-0.049-0.047-0.073-0.123-0.073-0.227c0-0.046,0.007-0.102,0.022-0.168
					L286.352,148.03z"/>
				<path id="XMLID_2057_" style="fill:#27DEBF;" d="M292.233,152.599c0,0.185-0.052,0.376-0.157,0.575l-2.216,4.586
					c-0.038,0.068-0.071,0.114-0.102,0.137c-0.03,0.023-0.049,0.037-0.055,0.041c-0.067,0.039-0.125,0.035-0.175-0.012
					c-0.048-0.047-0.072-0.123-0.072-0.227v-1.541c0-0.197,0.015-0.355,0.044-0.476c0.03-0.121,0.083-0.261,0.157-0.42l1.17-2.424
					l-1.17-1.074c-0.074-0.073-0.128-0.152-0.157-0.238c-0.03-0.087-0.044-0.228-0.044-0.424v-1.542c0-0.104,0.024-0.206,0.072-0.31
					c0.049-0.103,0.108-0.174,0.175-0.213c0.007-0.004,0.026-0.012,0.055-0.023c0.031-0.011,0.064-0.005,0.102,0.018l2.216,2.029
					c0.105,0.077,0.157,0.209,0.157,0.394V152.599z"/>
				<path id="XMLID_2060_" style="fill:#27DEBF;" d="M298.395,151.534c0.082-0.047,0.153-0.042,0.215,0.015
					c0.059,0.058,0.09,0.151,0.09,0.277v1.697c0,0.128-0.031,0.253-0.09,0.381c-0.061,0.127-0.132,0.214-0.215,0.262l-1.045,0.604
					c-0.083,0.048-0.154,0.042-0.214-0.015c-0.06-0.058-0.09-0.15-0.09-0.277v-1.697c0-0.127,0.03-0.254,0.09-0.381
					c0.059-0.126,0.13-0.214,0.214-0.262L298.395,151.534z"/>
				<path id="XMLID_2063_" style="fill:#27DEBF;" d="M301.893,149.515c0.082-0.048,0.153-0.042,0.214,0.015
					c0.06,0.058,0.09,0.151,0.09,0.277v1.697c0,0.128-0.03,0.253-0.09,0.381c-0.06,0.127-0.132,0.214-0.214,0.262l-1.047,0.604
					c-0.083,0.048-0.153,0.042-0.213-0.015c-0.06-0.058-0.09-0.15-0.09-0.277v-1.697c0-0.127,0.03-0.254,0.09-0.381
					c0.06-0.127,0.13-0.214,0.213-0.262L301.893,149.515z"/>
				<path id="XMLID_2068_" style="fill:#27DEBF;" d="M305.389,147.496c0.082-0.047,0.153-0.042,0.214,0.015
					c0.059,0.058,0.09,0.151,0.09,0.277v1.697c0,0.128-0.031,0.254-0.09,0.381c-0.061,0.127-0.132,0.214-0.214,0.262l-1.046,0.604
					c-0.083,0.048-0.154,0.042-0.214-0.015c-0.06-0.058-0.09-0.15-0.09-0.277v-1.697c0-0.126,0.03-0.253,0.09-0.381
					c0.059-0.126,0.131-0.214,0.214-0.262L305.389,147.496z"/>
			</g>
			<path id="XMLID_959_" style="fill:#27DEBF;" d="M279.177,171.905l51.244-29.586c0.605-0.349,1.095-0.101,1.095,0.554
				s-0.49,1.47-1.095,1.819l-51.244,29.586c-0.605,0.349-1.095,0.101-1.095-0.554C278.082,173.069,278.572,172.254,279.177,171.905z
				"/>
			<path id="XMLID_1876_" style="fill:#E0E0E0;" d="M295.618,190.889l51.244-29.586c0.605-0.349,1.095-0.101,1.095,0.554
				c0,0.655-0.49,1.47-1.095,1.819l-51.244,29.586c-0.605,0.349-1.095,0.101-1.095-0.554
				C294.523,192.053,295.013,191.239,295.618,190.889z"/>
			<path id="XMLID_1877_" style="fill:#E0E0E0;" d="M295.618,200.382l24.527-14.15c0.605-0.349,1.095-0.101,1.095,0.554
				c0,0.655-0.49,1.47-1.095,1.819l-24.526,14.15c-0.605,0.349-1.095,0.101-1.095-0.554
				C294.523,201.546,295.013,200.731,295.618,200.382z"/>
			<path id="XMLID_1878_" style="fill:#E0E0E0;" d="M295.618,209.874l24.527-14.15c0.605-0.349,1.095-0.101,1.095,0.554
				s-0.49,1.47-1.095,1.819l-24.526,14.15c-0.605,0.349-1.095,0.101-1.095-0.554C294.523,211.038,295.013,210.224,295.618,209.874z"
				/>
			<path id="XMLID_964_" style="fill:#27DEBF;" d="M334.667,139.867l20.416-11.831c0.605-0.349,1.095-0.101,1.095,0.554
				c0,0.655-0.49,1.47-1.095,1.819l-20.416,11.831c-0.605,0.349-1.095,0.101-1.095-0.554
				C333.571,141.031,334.062,140.217,334.667,139.867z"/>
			<path id="XMLID_2051_" style="fill:#27DEBF;" d="M279.177,276.312l51.244-29.586c0.605-0.349,1.095-0.101,1.095,0.554
				c0,0.655-0.49,1.47-1.095,1.819l-51.244,29.586c-0.605,0.349-1.095,0.101-1.095-0.554
				C278.082,277.476,278.572,276.661,279.177,276.312z"/>
			<path id="XMLID_2050_" style="fill:#27DEBF;" d="M334.667,244.274l20.416-11.831c0.605-0.349,1.095-0.101,1.095,0.554
				s-0.49,1.47-1.095,1.819l-20.416,11.831c-0.605,0.349-1.095,0.101-1.095-0.554C333.571,245.438,334.062,244.624,334.667,244.274z
				"/>
			<path id="XMLID_1891_" style="fill:#27DEBF;" d="M334.667,215.848l20.416-11.831c0.605-0.349,1.095-0.101,1.095,0.554
				c0,0.655-0.49,1.47-1.095,1.819l-20.416,11.831c-0.605,0.349-1.095,0.101-1.095-0.554
				C333.571,217.012,334.062,216.198,334.667,215.848z"/>
			<path id="XMLID_1893_" style="fill:#27DEBF;" d="M334.667,225.339l20.416-11.831c0.605-0.349,1.095-0.101,1.095,0.554
				s-0.49,1.47-1.095,1.819l-20.416,11.831c-0.605,0.349-1.095,0.101-1.095-0.554C333.571,226.502,334.062,225.688,334.667,225.339z
				"/>
			<path id="XMLID_1153_" style="fill:#F5F5F5;" d="M279.177,266.83l51.244-29.586c0.605-0.349,1.095-0.101,1.095,0.554
				s-0.49,1.47-1.095,1.819l-51.244,29.586c-0.605,0.349-1.095,0.101-1.095-0.554C278.082,267.994,278.572,267.179,279.177,266.83z"
				/>
			<path id="XMLID_1892_" style="fill:#27DEBF;" d="M317.258,225.871l11.471-6.622c0.605-0.349,1.095-0.101,1.095,0.554
				c0,0.655-0.49,1.47-1.095,1.819l-11.47,6.622c-0.605,0.349-1.096,0.101-1.096-0.554
				C316.163,227.034,316.653,226.22,317.258,225.871z"/>
			<g id="XMLID_1135_">
				<path id="XMLID_1119_" style="fill:#27DEBF;" d="M279.177,181.419l29.889-17.269c0.605-0.349,1.095-0.101,1.095,0.554
					s-0.49,1.47-1.095,1.819l-29.889,17.269c-0.605,0.349-1.095,0.101-1.095-0.554C278.082,182.583,278.572,181.768,279.177,181.419
					z"/>
				<path id="XMLID_960_" style="opacity:0.6;fill:#FFFFFF;" d="M279.177,181.419l29.889-17.269
					c0.605-0.349,1.095-0.101,1.095,0.554s-0.49,1.47-1.095,1.819l-29.889,17.269c-0.605,0.349-1.095,0.101-1.095-0.554
					C278.082,182.583,278.572,181.768,279.177,181.419z"/>
			</g>
			<g id="XMLID_1154_">
				<path id="XMLID_1156_" style="fill:#27DEBF;" d="M279.177,190.893l10.14-5.861c0.605-0.349,1.095-0.101,1.095,0.554
					c0,0.655-0.49,1.47-1.095,1.819l-10.14,5.861c-0.605,0.349-1.095,0.101-1.095-0.554
					C278.082,192.057,278.572,191.243,279.177,190.893z"/>
				<path id="XMLID_1155_" style="opacity:0.6;fill:#FFFFFF;" d="M279.177,190.893l10.14-5.861c0.605-0.349,1.095-0.101,1.095,0.554
					c0,0.655-0.49,1.47-1.095,1.819l-10.14,5.861c-0.605,0.349-1.095,0.101-1.095-0.554
					C278.082,192.057,278.572,191.243,279.177,190.893z"/>
			</g>
			<g id="XMLID_1166_">
				<path id="XMLID_1168_" style="fill:#27DEBF;" d="M279.177,200.385l10.14-5.861c0.605-0.349,1.095-0.101,1.095,0.554
					s-0.49,1.47-1.095,1.819l-10.14,5.861c-0.605,0.349-1.095,0.101-1.095-0.554C278.082,201.549,278.572,200.735,279.177,200.385z"
					/>
				<path id="XMLID_1167_" style="opacity:0.6;fill:#FFFFFF;" d="M279.177,200.385l10.14-5.861c0.605-0.349,1.095-0.101,1.095,0.554
					s-0.49,1.47-1.095,1.819l-10.14,5.861c-0.605,0.349-1.095,0.101-1.095-0.554C278.082,201.549,278.572,200.735,279.177,200.385z"
					/>
			</g>
			<g id="XMLID_1349_">
				<path id="XMLID_1766_" style="fill:#27DEBF;" d="M279.177,209.877l10.14-5.861c0.605-0.349,1.095-0.101,1.095,0.554
					c0,0.655-0.49,1.47-1.095,1.819l-10.14,5.861c-0.605,0.349-1.095,0.101-1.095-0.554
					C278.082,211.041,278.572,210.227,279.177,209.877z"/>
				<path id="XMLID_1765_" style="opacity:0.6;fill:#FFFFFF;" d="M279.177,209.877l10.14-5.861c0.605-0.349,1.095-0.101,1.095,0.554
					c0,0.655-0.49,1.47-1.095,1.819l-10.14,5.861c-0.605,0.349-1.095,0.101-1.095-0.554
					C278.082,211.041,278.572,210.227,279.177,209.877z"/>
			</g>
			<g id="XMLID_1805_">
				<path id="XMLID_1809_" style="fill:#27DEBF;" d="M279.177,219.369l10.14-5.861c0.605-0.349,1.095-0.101,1.095,0.554
					s-0.49,1.47-1.095,1.819l-10.14,5.861c-0.605,0.349-1.095,0.101-1.095-0.554C278.082,220.533,278.572,219.719,279.177,219.369z"
					/>
				<path id="XMLID_1806_" style="opacity:0.6;fill:#FFFFFF;" d="M279.177,219.369l10.14-5.861c0.605-0.349,1.095-0.101,1.095,0.554
					s-0.49,1.47-1.095,1.819l-10.14,5.861c-0.605,0.349-1.095,0.101-1.095-0.554C278.082,220.533,278.572,219.719,279.177,219.369z"
					/>
			</g>
			<g id="XMLID_1126_">
				<path id="XMLID_965_" style="fill:#27DEBF;" d="M313.312,161.698l12.998-7.48c0.605-0.349,1.095-0.101,1.095,0.554
					s-0.491,1.47-1.095,1.819l-12.997,7.48c-0.605,0.349-1.095,0.101-1.095-0.554C312.217,162.861,312.707,162.047,313.312,161.698z
					"/>
				<path id="XMLID_1125_" style="opacity:0.6;fill:#FFFFFF;" d="M313.312,161.698l12.998-7.48c0.605-0.349,1.095-0.101,1.095,0.554
					s-0.491,1.47-1.095,1.819l-12.997,7.48c-0.605,0.349-1.095,0.101-1.095-0.554C312.217,162.861,312.707,162.047,313.312,161.698z
					"/>
			</g>
			<g id="XMLID_1888_">
				<path id="XMLID_1890_" style="fill:#F5F5F5;" d="M307.95,212.233l29.889-17.269c0.605-0.349,1.095-0.101,1.095,0.554
					c0,0.655-0.49,1.47-1.095,1.819l-29.889,17.269c-0.605,0.349-1.095,0.101-1.095-0.554
					C306.854,213.397,307.345,212.583,307.95,212.233z"/>
			</g>
			<g id="XMLID_1886_">
				<path id="XMLID_1889_" style="fill:#F5F5F5;" d="M325.194,211.808l29.89-17.269c0.605-0.349,1.095-0.101,1.095,0.554
					c0,0.655-0.49,1.47-1.095,1.819l-29.889,17.269c-0.605,0.349-1.095,0.101-1.095-0.554
					C324.099,212.972,324.589,212.157,325.194,211.808z"/>
			</g>
			<g id="XMLID_1881_">
				<path id="XMLID_1887_" style="fill:#F5F5F5;" d="M342.085,192.512l12.998-7.48c0.605-0.349,1.095-0.101,1.095,0.554
					c0,0.655-0.49,1.47-1.095,1.819l-12.997,7.48c-0.605,0.349-1.095,0.101-1.095-0.554
					C340.99,193.676,341.48,192.861,342.085,192.512z"/>
			</g>
			<g id="XMLID_1160_">
				<path id="XMLID_1165_" style="fill:#27DEBF;" d="M295.618,181.401l29.889-17.269c0.605-0.349,1.095-0.101,1.095,0.554
					s-0.49,1.47-1.095,1.819l-29.889,17.269c-0.605,0.349-1.095,0.101-1.095-0.554C294.523,182.565,295.013,181.751,295.618,181.401
					z"/>
				<path id="XMLID_1164_" style="opacity:0.6;fill:#FFFFFF;" d="M295.618,181.401l29.889-17.269
					c0.605-0.349,1.095-0.101,1.095,0.554s-0.49,1.47-1.095,1.819l-29.889,17.269c-0.605,0.349-1.095,0.101-1.095-0.554
					C294.523,182.565,295.013,181.751,295.618,181.401z"/>
			</g>
			<g id="XMLID_1157_">
				<path id="XMLID_1159_" style="fill:#27DEBF;" d="M329.754,161.68l12.997-7.48c0.605-0.349,1.095-0.101,1.095,0.554
					c0,0.655-0.49,1.47-1.095,1.819l-12.997,7.48c-0.605,0.349-1.095,0.101-1.095-0.554
					C328.658,162.844,329.148,162.029,329.754,161.68z"/>
				<path id="XMLID_1158_" style="opacity:0.6;fill:#FFFFFF;" d="M329.754,161.68l12.997-7.48c0.605-0.349,1.095-0.101,1.095,0.554
					c0,0.655-0.49,1.47-1.095,1.819l-12.997,7.48c-0.605,0.349-1.095,0.101-1.095-0.554
					C328.658,162.844,329.148,162.029,329.754,161.68z"/>
			</g>
		</g>
	</g>
</g>
<g id="Speech_Bubbles">
	<g id="XMLID_405_">
		<g id="XMLID_2247_">
			<g id="XMLID_2238_">
				<path id="XMLID_2266_" style="fill:#27DEBF;" d="M425.208,95.43l0-11.386l-9.611-0.838c-0.15-0.013-0.285,0.019-0.399,0.081
					c-0.372,0.204-9.472,5.41-9.591,5.481c-0.355,0.213-0.484,0.73-0.156,1.084l10.19,11.046L425.208,95.43z"/>
				<path id="XMLID_2239_" style="fill:#27DEBF;" d="M415.64,100.898l-10.19-11.046c-0.436-0.473-0.062-1.234,0.579-1.179
					l9.612,0.838V100.898z"/>
				<path id="XMLID_2287_" style="fill:#27DEBF;" d="M425.204,84.04l-9.564,5.476l-9.613-0.842
					c-0.121-0.008-0.235,0.008-0.332,0.049c0.769-0.453,9.151-5.249,9.5-5.436c0.113-0.065,0.251-0.097,0.405-0.081L425.204,84.04z"
					/>
				<path id="XMLID_2286_" style="opacity:0.5;fill:#FFFFFF;" d="M425.204,84.04l-9.564,5.476l-9.613-0.842
					c-0.121-0.008-0.235,0.008-0.332,0.049c0.769-0.453,9.151-5.249,9.5-5.436c0.113-0.065,0.251-0.097,0.405-0.081L425.204,84.04z"
					/>
			</g>
			<g id="XMLID_2191_">
				<g id="XMLID_2252_">
					<g id="XMLID_2258_">
						<g id="XMLID_2259_">
							<path id="XMLID_2265_" style="fill:#27DEBF;" d="M415.659,76.666c0-2.21,1.551-4.896,3.465-6.001l2.821-1.629
								c1.913-1.105,5.016-1.105,6.93,0l30.07,17.363c1.914,1.105,3.465,3.791,3.465,6.001v34.738c0,2.21-1.552,4.896-3.465,6.001
								l-2.821,1.629c-1.914,1.105-5.016,1.105-6.93,0l-8.877-5.125l-11.539-6.666l-9.654-5.571
								c-1.914-1.104-3.465-3.791-3.465-6.001L415.659,76.666z"/>
							<path id="XMLID_2264_" style="opacity:0.2;" d="M462.409,127.137c0,2.21-1.552,4.896-3.465,6.001l-2.821,1.629
								c-1.73,0.999-4.421,1.086-6.337,0.279c1.631,0.617,2.872-0.303,2.872-2.28l0-34.738c0-1.105-0.388-2.329-1.015-3.415
								l9.751-5.629c0.627,1.086,1.015,2.31,1.015,3.415V127.137z"/>
							<path id="XMLID_2263_" style="opacity:0.5;fill:#FFFFFF;" d="M415.772,75.681c0.404-1.471,1.746-1.94,3.346-1.018
								l30.077,17.368c0.953,0.549,1.826,1.487,2.441,2.586l9.747-5.625c-0.63-1.099-1.487-2.037-2.44-2.587l-30.061-17.368
								c-1.923-1.099-5.027-1.099-6.935,0l-2.829,1.633C417.485,71.608,416.111,73.709,415.772,75.681z"/>
						</g>
					</g>
				</g>
			</g>
		</g>
		<g id="XMLID_2551_">
			<g id="XMLID_2569_">
				<polygon id="XMLID_2575_" style="fill:#455A64;" points="434.156,89.35 422.706,87.755 424.306,108.875 434.156,121.67 				"/>
				<polygon id="XMLID_2571_" style="fill:#37474F;" points="434.156,89.35 445.606,100.976 444.005,120.249 434.156,121.671 				
					"/>
			</g>
			<path id="XMLID_2552_" style="fill:#FAFAFA;" d="M438.873,116.845l2.622,1.514l-7.315-25.785l-7.315,17.338l2.622,1.514
				l1.579-3.759l6.227,3.595L438.873,116.845z M432.018,105.403l2.162-5.147l2.162,7.643L432.018,105.403z"/>
		</g>
	</g>
	<g id="XMLID_407_">
		<g id="XMLID_2268_">
			<g id="XMLID_2293_">
				<path id="XMLID_2299_" style="fill:#27DEBF;" d="M425.208,160.273l0-11.387l-9.611-0.838c-0.15-0.013-0.285,0.019-0.399,0.081
					c-0.372,0.204-9.472,5.41-9.591,5.481c-0.355,0.213-0.484,0.73-0.156,1.085l10.19,11.046L425.208,160.273z"/>
				<path id="XMLID_2298_" style="fill:#EBEBEB;" d="M415.64,165.742l-10.19-11.046c-0.436-0.473-0.062-1.234,0.579-1.179
					l9.612,0.838V165.742z"/>
				<path id="XMLID_2297_" style="fill:#27DEBF;" d="M425.204,148.883l-9.564,5.476l-9.613-0.842
					c-0.121-0.008-0.235,0.008-0.332,0.049c0.769-0.453,9.151-5.249,9.5-5.435c0.113-0.065,0.251-0.097,0.405-0.081L425.204,148.883
					z"/>
				<path id="XMLID_2296_" style="fill:#F5F5F5;" d="M425.204,148.883l-9.564,5.476l-9.613-0.842
					c-0.121-0.008-0.235,0.008-0.332,0.049c0.769-0.453,9.151-5.249,9.5-5.435c0.113-0.065,0.251-0.097,0.405-0.081L425.204,148.883
					z"/>
			</g>
			<g id="XMLID_2270_">
				<g id="XMLID_2272_">
					<g id="XMLID_2273_">
						<g id="XMLID_2280_">
							<path id="XMLID_2291_" style="fill:#EBEBEB;" d="M415.659,141.509c0-2.21,1.551-4.896,3.465-6.001l2.821-1.629
								c1.913-1.105,5.016-1.105,6.93,0l30.07,17.363c1.914,1.105,3.465,3.791,3.465,6.001v34.738c0,2.21-1.552,4.896-3.465,6.001
								l-2.821,1.629c-1.914,1.105-5.016,1.105-6.93,0l-8.877-5.125l-11.539-6.666l-9.654-5.571
								c-1.914-1.104-3.465-3.791-3.465-6.001L415.659,141.509z"/>
							<path id="XMLID_2289_" style="fill:#E0E0E0;" d="M462.409,191.98c0,2.21-1.552,4.896-3.465,6.001l-2.821,1.629
								c-1.73,0.999-4.421,1.085-6.337,0.279c1.631,0.617,2.872-0.303,2.872-2.28l0-34.738c0-1.105-0.388-2.329-1.015-3.415
								l9.751-5.629c0.627,1.086,1.015,2.31,1.015,3.415V191.98z"/>
							<path id="XMLID_2288_" style="fill:#F5F5F5;" d="M415.772,140.524c0.404-1.471,1.746-1.94,3.346-1.018l30.077,17.368
								c0.953,0.549,1.826,1.487,2.441,2.586l9.747-5.625c-0.63-1.099-1.487-2.037-2.44-2.587l-30.061-17.368
								c-1.923-1.099-5.027-1.099-6.935,0l-2.829,1.633C417.485,136.451,416.111,138.552,415.772,140.524z"/>
						</g>
					</g>
				</g>
			</g>
		</g>
		<g id="XMLID_2545_">
			<polygon id="XMLID_2548_" style="fill:#27DEBF;" points="434.156,162.747 436.683,157.993 445.606,163.145 434.156,184.683 
				422.706,149.924 431.629,155.076 			"/>
			<polygon id="XMLID_2104_" style="opacity:0.15;" points="434.156,162.747 436.683,157.993 445.606,163.145 434.156,184.683 
				422.706,149.924 431.629,155.076 			"/>
			<path id="XMLID_2546_" style="fill:#37474F;" d="M434.156,162.747l-2.527-7.671l-3.978-2.297
				c3.192,9.691,6.505,19.748,6.505,19.748l6.505-12.236l-3.978-2.297L434.156,162.747z"/>
		</g>
	</g>
	<g id="XMLID_410_">
		<g id="XMLID_2300_">
			<g id="XMLID_2310_">
				<path id="XMLID_2314_" style="fill:#27DEBF;" d="M425.208,225.117l0-11.386l-9.611-0.838c-0.15-0.013-0.285,0.019-0.399,0.081
					c-0.372,0.204-9.472,5.41-9.591,5.481c-0.355,0.213-0.484,0.73-0.156,1.084l10.19,11.046L425.208,225.117z"/>
				<path id="XMLID_2313_" style="fill:#37474F;" d="M415.64,230.585l-10.19-11.046c-0.436-0.473-0.062-1.234,0.579-1.179
					l9.612,0.838V230.585z"/>
				<path id="XMLID_2312_" style="fill:#27DEBF;" d="M425.204,213.726l-9.564,5.476l-9.613-0.842
					c-0.121-0.008-0.235,0.008-0.332,0.049c0.769-0.453,9.151-5.249,9.5-5.436c0.113-0.065,0.251-0.097,0.405-0.081L425.204,213.726
					z"/>
				<path id="XMLID_2311_" style="fill:#455A64;" d="M425.204,213.726l-9.564,5.476l-9.613-0.842
					c-0.121-0.008-0.235,0.008-0.332,0.049c0.769-0.453,9.151-5.249,9.5-5.436c0.113-0.065,0.251-0.097,0.405-0.081L425.204,213.726
					z"/>
			</g>
			<g id="XMLID_2301_">
				<g id="XMLID_2303_">
					<g id="XMLID_2305_">
						<g id="XMLID_2306_">
							<path id="XMLID_2309_" style="fill:#37474F;" d="M415.659,206.352c0-2.21,1.551-4.896,3.465-6.001l2.821-1.629
								c1.913-1.105,5.016-1.105,6.93,0l30.07,17.362c1.914,1.105,3.465,3.792,3.465,6.001v34.737c0,2.21-1.552,4.897-3.465,6.001
								l-2.821,1.629c-1.914,1.105-5.016,1.105-6.93,0l-8.877-5.125l-11.539-6.667l-9.654-5.571
								c-1.914-1.104-3.465-3.791-3.465-6.001L415.659,206.352z"/>
							<path id="XMLID_2308_" style="fill:#263238;" d="M462.409,256.823c0,2.21-1.552,4.896-3.465,6.001l-2.821,1.629
								c-1.73,0.999-4.421,1.086-6.337,0.279c1.631,0.617,2.872-0.303,2.872-2.28l0-34.738c0-1.105-0.388-2.329-1.015-3.415
								l9.751-5.629c0.627,1.086,1.015,2.31,1.015,3.415V256.823z"/>
							<path id="XMLID_2307_" style="fill:#455A64;" d="M415.772,205.367c0.404-1.471,1.746-1.94,3.346-1.018l30.077,17.368
								c0.953,0.549,1.826,1.487,2.441,2.586l9.747-5.625c-0.63-1.099-1.487-2.037-2.44-2.586l-30.061-17.368
								c-1.923-1.099-5.027-1.099-6.935,0l-2.829,1.633C417.485,201.294,416.111,203.395,415.772,205.367z"/>
						</g>
					</g>
				</g>
			</g>
		</g>
		<g id="XMLID_2105_">
			<g id="XMLID_2451_">
				<path id="XMLID_2648_" style="fill:#27DEBF;" d="M440.854,232.885c0.71-3.595,0.415-6.907-1.005-8.786
					c-0.715-0.947-1.649-1.441-2.716-1.441c-0.083,0-0.166,0.003-0.249,0.009c-0.858,0.06-1.757,0.421-2.654,1.042
					c-2.029-3.776-4.016-6.104-5.433-6.104c-0.068,0-0.136,0.006-0.203,0.017c-0.37,0.062-0.675,0.291-0.908,0.682
					c-0.685,1.145-0.724,3.632-0.204,6.906c-1.572-0.298-2.878-0.236-3.743,0.265c-0.759,0.438-1.16,1.193-1.16,2.182
					c0,2.17,1.912,5.152,4.879,7.993c-0.71,3.595-0.416,6.908,1.004,8.787c0.329,0.436,0.707,0.78,1.125,1.021
					c0.487,0.282,1.018,0.422,1.586,0.422c0.34,0,0.694-0.05,1.06-0.152c0.629-0.174,1.269-0.51,1.907-0.96
					c1.613,3.016,3.215,5.176,4.508,5.923c0.347,0.2,0.67,0.3,0.966,0.3c0.07,0,0.138-0.006,0.206-0.018
					c0.37-0.062,0.675-0.291,0.908-0.682c0.687-1.149,0.724-3.647,0.199-6.936c0.57,0.104,1.107,0.163,1.594,0.163
					c0.822,0,1.517-0.15,2.049-0.458c0.76-0.439,1.161-1.194,1.161-2.183C445.732,238.708,443.82,235.727,440.854,232.885z
					 M437.423,238.679c-0.35,0.632-0.722,1.206-1.103,1.751c-0.663-0.318-1.361-0.682-2.101-1.109
					c-0.738-0.426-1.445-0.873-2.124-1.332c-0.39-1.005-0.775-2.059-1.146-3.159c-0.366-1.083-0.689-2.12-0.978-3.115
					c0.275-0.62,0.577-1.241,0.918-1.855c0.35-0.631,0.718-1.208,1.094-1.75c0.667,0.319,1.364,0.679,2.109,1.109
					c0.777,0.449,1.522,0.919,2.232,1.404c0.385,0.996,0.767,2.043,1.14,3.147c0.344,1.018,0.653,1.998,0.929,2.938
					C438.106,237.365,437.785,238.025,437.423,238.679z M438.404,233.569c-0.224-0.662-0.453-1.308-0.686-1.943
					c0.671,0.508,1.303,1.024,1.891,1.543c-0.175,0.692-0.391,1.399-0.649,2.115C438.783,234.718,438.6,234.148,438.404,233.569z
					 M434.219,227.929c-0.508-0.293-1.006-0.558-1.499-0.808c0.466-0.576,0.943-1.078,1.423-1.501
					c0.471,0.952,0.949,2.001,1.426,3.134C435.127,228.471,434.677,228.194,434.219,227.929z M429.968,228.811
					c-0.182,0.328-0.353,0.661-0.518,0.996c-0.269-1.044-0.497-2.031-0.677-2.946c0.6,0.17,1.251,0.395,1.955,0.685
					C430.468,227.948,430.213,228.368,429.968,228.811z M430.011,235.027c0.227,0.671,0.462,1.327,0.701,1.975
					c-0.717-0.537-1.387-1.084-2.01-1.634c0.186-0.735,0.415-1.486,0.695-2.247C429.591,233.749,429.793,234.383,430.011,235.027z
					 M434.092,240.608c0.505,0.291,1,0.554,1.489,0.804c-0.445,0.547-0.898,1.041-1.356,1.452c-0.455-0.925-0.914-1.926-1.37-3.005
					C433.262,240.115,433.674,240.366,434.092,240.608z M438.343,239.726c0.203-0.366,0.395-0.738,0.577-1.112
					c0.287,1.099,0.527,2.136,0.717,3.094c-0.628-0.174-1.313-0.407-2.058-0.714C437.841,240.59,438.096,240.171,438.343,239.726z
					 M436.984,229.709c-0.677-1.705-1.377-3.279-2.079-4.692c0.562-0.393,1.123-0.685,1.671-0.837
					c0.297-0.083,0.586-0.124,0.859-0.124c0.421,0,0.806,0.097,1.141,0.29c0.257,0.148,0.486,0.354,0.68,0.611
					c0.956,1.266,1.211,3.916,0.616,7.025C438.98,231.198,438.01,230.435,436.984,229.709z M431.447,226.519
					c-1.036-0.463-2.016-0.819-2.928-1.068c-0.5-3.099-0.439-5.231,0.058-6.062c0.125-0.21,0.277-0.33,0.45-0.36
					c0.03-0.005,0.06-0.007,0.092-0.007c0.156,0,0.337,0.059,0.542,0.177c0.949,0.548,2.318,2.331,3.809,5.111
					C432.779,224.904,432.099,225.646,431.447,226.519z M428.825,231.185c-0.454,1.088-0.823,2.192-1.101,3.282
					c-2.568-2.477-4.092-4.88-4.092-6.347c0-0.597,0.256-1.048,0.762-1.339c0.381-0.221,0.95-0.357,1.698-0.357
					c0.472,0,1.022,0.06,1.635,0.181C428.003,228.024,428.371,229.563,428.825,231.185z M431.444,238.911
					c0.656,1.639,1.34,3.173,2.031,4.564c-0.826,0.596-1.644,0.945-2.402,0.999c-0.831,0.066-1.529-0.25-2.018-0.895
					c-0.957-1.267-1.212-3.917-0.616-7.027C429.365,237.368,430.375,238.16,431.444,238.911z M436.865,242.024
					c1.071,0.479,2.09,0.851,3.028,1.1c0.504,3.111,0.443,5.25-0.055,6.083c-0.125,0.21-0.277,0.33-0.451,0.36
					c-0.905,0.16-2.617-1.867-4.492-5.392C435.568,243.588,436.231,242.872,436.865,242.024z M439.537,237.224
					c0.43-1.047,0.783-2.106,1.05-3.154c2.568,2.476,4.091,4.88,4.091,6.346c0,0.597-0.256,1.048-0.762,1.339
					c-0.609,0.354-1.699,0.485-3.236,0.197C440.396,240.49,440.011,238.9,439.537,237.224z"/>
				<g id="XMLID_2452_">
					<path id="XMLID_2453_" style="fill:#27DEBF;" d="M436.188,235.442c0,1.497-0.91,2.185-2.033,1.537
						c-1.122-0.648-2.033-2.387-2.033-3.883s0.91-2.185,2.033-1.537C435.278,232.206,436.188,233.945,436.188,235.442z"/>
				</g>
			</g>
			<g id="XMLID_2073_" style="opacity:0.65;">
				<path id="XMLID_2079_" style="fill:#FFFFFF;" d="M440.854,232.885c0.71-3.595,0.415-6.907-1.005-8.786
					c-0.715-0.947-1.649-1.441-2.716-1.441c-0.083,0-0.166,0.003-0.249,0.009c-0.858,0.06-1.757,0.421-2.654,1.042
					c-2.029-3.776-4.016-6.104-5.433-6.104c-0.068,0-0.136,0.006-0.203,0.017c-0.37,0.062-0.675,0.291-0.908,0.682
					c-0.685,1.145-0.724,3.632-0.204,6.906c-1.572-0.298-2.878-0.236-3.743,0.265c-0.759,0.438-1.16,1.193-1.16,2.182
					c0,2.17,1.912,5.152,4.879,7.993c-0.71,3.595-0.416,6.908,1.004,8.787c0.329,0.436,0.707,0.78,1.125,1.021
					c0.487,0.282,1.018,0.422,1.586,0.422c0.34,0,0.694-0.05,1.06-0.152c0.629-0.174,1.269-0.51,1.907-0.96
					c1.613,3.016,3.215,5.176,4.508,5.923c0.347,0.2,0.67,0.3,0.966,0.3c0.07,0,0.138-0.006,0.206-0.018
					c0.37-0.062,0.675-0.291,0.908-0.682c0.687-1.149,0.724-3.647,0.199-6.936c0.57,0.104,1.107,0.163,1.594,0.163
					c0.822,0,1.517-0.15,2.049-0.458c0.76-0.439,1.161-1.194,1.161-2.183C445.732,238.708,443.82,235.727,440.854,232.885z
					 M437.423,238.679c-0.35,0.632-0.722,1.206-1.103,1.751c-0.663-0.318-1.361-0.682-2.101-1.109
					c-0.738-0.426-1.445-0.873-2.124-1.332c-0.39-1.005-0.775-2.059-1.146-3.159c-0.366-1.083-0.689-2.12-0.978-3.115
					c0.275-0.62,0.577-1.241,0.918-1.855c0.35-0.631,0.718-1.208,1.094-1.75c0.667,0.319,1.364,0.679,2.109,1.109
					c0.777,0.449,1.522,0.919,2.232,1.404c0.385,0.996,0.767,2.043,1.14,3.147c0.344,1.018,0.653,1.998,0.929,2.938
					C438.106,237.365,437.785,238.025,437.423,238.679z M438.404,233.569c-0.224-0.662-0.453-1.308-0.686-1.943
					c0.671,0.508,1.303,1.024,1.891,1.543c-0.175,0.692-0.391,1.399-0.649,2.115C438.783,234.718,438.6,234.148,438.404,233.569z
					 M434.219,227.929c-0.508-0.293-1.006-0.558-1.499-0.808c0.466-0.576,0.943-1.078,1.423-1.501
					c0.471,0.952,0.949,2.001,1.426,3.134C435.127,228.471,434.677,228.194,434.219,227.929z M429.968,228.811
					c-0.182,0.328-0.353,0.661-0.518,0.996c-0.269-1.044-0.497-2.031-0.677-2.946c0.6,0.17,1.251,0.395,1.955,0.685
					C430.468,227.948,430.213,228.368,429.968,228.811z M430.011,235.027c0.227,0.671,0.462,1.327,0.701,1.975
					c-0.717-0.537-1.387-1.084-2.01-1.634c0.186-0.735,0.415-1.486,0.695-2.247C429.591,233.749,429.793,234.383,430.011,235.027z
					 M434.092,240.608c0.505,0.291,1,0.554,1.489,0.804c-0.445,0.547-0.898,1.041-1.356,1.452c-0.455-0.925-0.914-1.926-1.37-3.005
					C433.262,240.115,433.674,240.366,434.092,240.608z M438.343,239.726c0.203-0.366,0.395-0.738,0.577-1.112
					c0.287,1.099,0.527,2.136,0.717,3.094c-0.628-0.174-1.313-0.407-2.058-0.714C437.841,240.59,438.096,240.171,438.343,239.726z
					 M436.984,229.709c-0.677-1.705-1.377-3.279-2.079-4.692c0.562-0.393,1.123-0.685,1.671-0.837
					c0.297-0.083,0.586-0.124,0.859-0.124c0.421,0,0.806,0.097,1.141,0.29c0.257,0.148,0.486,0.354,0.68,0.611
					c0.956,1.266,1.211,3.916,0.616,7.025C438.98,231.198,438.01,230.435,436.984,229.709z M431.447,226.519
					c-1.036-0.463-2.016-0.819-2.928-1.068c-0.5-3.099-0.439-5.231,0.058-6.062c0.125-0.21,0.277-0.33,0.45-0.36
					c0.03-0.005,0.06-0.007,0.092-0.007c0.156,0,0.337,0.059,0.542,0.177c0.949,0.548,2.318,2.331,3.809,5.111
					C432.779,224.904,432.099,225.646,431.447,226.519z M428.825,231.185c-0.454,1.088-0.823,2.192-1.101,3.282
					c-2.568-2.477-4.092-4.88-4.092-6.347c0-0.597,0.256-1.048,0.762-1.339c0.381-0.221,0.95-0.357,1.698-0.357
					c0.472,0,1.022,0.06,1.635,0.181C428.003,228.024,428.371,229.563,428.825,231.185z M431.444,238.911
					c0.656,1.639,1.34,3.173,2.031,4.564c-0.826,0.596-1.644,0.945-2.402,0.999c-0.831,0.066-1.529-0.25-2.018-0.895
					c-0.957-1.267-1.212-3.917-0.616-7.027C429.365,237.368,430.375,238.16,431.444,238.911z M436.865,242.024
					c1.071,0.479,2.09,0.851,3.028,1.1c0.504,3.111,0.443,5.25-0.055,6.083c-0.125,0.21-0.277,0.33-0.451,0.36
					c-0.905,0.16-2.617-1.867-4.492-5.392C435.568,243.588,436.231,242.872,436.865,242.024z M439.537,237.224
					c0.43-1.047,0.783-2.106,1.05-3.154c2.568,2.476,4.091,4.88,4.091,6.346c0,0.597-0.256,1.048-0.762,1.339
					c-0.609,0.354-1.699,0.485-3.236,0.197C440.396,240.49,440.011,238.9,439.537,237.224z"/>
				<g id="XMLID_2077_">
					<path id="XMLID_2078_" style="fill:#FFFFFF;" d="M436.188,235.442c0,1.497-0.91,2.185-2.033,1.537
						c-1.122-0.648-2.033-2.387-2.033-3.883s0.91-2.185,2.033-1.537C435.278,232.206,436.188,233.945,436.188,235.442z"/>
				</g>
			</g>
		</g>
	</g>
</g>
<g id="Character">
	<g id="Character_1_">
		<g id="XMLID_2425_">
			<path id="XMLID_2426_" style="fill:#FFA8A7;" d="M393.113,274.216c3.908,0.76,5.689,2.091,7.912,7.512
				c2.223,5.421,6.185,18.625,7.109,22.247c0.414,1.623-9.859,16.144-9.418,15.929c0.135-0.066-4.011-7.003-4.011-7.003l5.041-9.646
				l-3.589-8.772L393.113,274.216z"/>
		</g>
		<path id="XMLID_2132_" style="fill:#27DEBF;" d="M391.788,274.301c0,0,3.567-0.639,5.926,1.322s2.72,3.263,4.313,7.291
			c1.593,4.028,4.218,12.393,4.218,12.393s-0.754,4.505-8.084,5.389l-6.284-14.151C391.876,286.546,389.69,277.989,391.788,274.301z
			"/>
		<g id="XMLID_2396_">
			<path id="XMLID_2182_" style="fill:#455A64;" d="M384.426,390.406c-0.1,1.27-0.263,2.412,0.23,3.809
				c0.707,2.005,2.203,2.923,3.081,3.714c0.878,0.791,1.856,1.96,2.559,3.102c0.625,1.015,1.334,2.18,2.671,3.338
				c0.835,0.723,3.183,0.788,4.315,0.312c1.133-0.476,1.512-0.902,1.442-2.711c-0.068-1.767-5.553-2.425-5.553-2.425
				L384.426,390.406z"/>
			<path id="XMLID_2321_" style="fill:#27DEBF;" d="M398.016,396.576c0.468,0.177,0.586,1.068,0.657,2.84
				c0.054,1.341,0.617,3.303-1.229,4.148c-1.489,0.682-3.87,0.229-4.877-1.035c-1.256-1.577-2.105-2.965-3.897-4.89
				c-1.555-1.669-3.174-2.232-3.865-5.568c-0.444-2.145-0.095-3.033,1.348-3.648c1.985-0.846,5.103,1.918,6.658,2.353
				C394.15,391.15,397.548,396.398,398.016,396.576z"/>
			<path id="XMLID_2324_" style="opacity:0.2;" d="M398.016,396.576c0.468,0.177,0.586,1.068,0.657,2.84
				c0.054,1.341,0.617,3.303-1.229,4.148c-1.489,0.682-3.87,0.229-4.877-1.035c-1.256-1.577-2.105-2.965-3.897-4.89
				c-1.555-1.669-3.174-2.232-3.865-5.568c-0.444-2.145-0.095-3.033,1.348-3.648c1.985-0.846,5.103,1.918,6.658,2.353
				C394.15,391.15,397.548,396.398,398.016,396.576z"/>
			<path id="XMLID_2428_" style="fill:#FAFAFA;" d="M392.811,390.775c-0.083-0.023-0.172-0.056-0.264-0.092
				c-2.864,0.249-4.009,2.222-4.297,2.818c-0.265,0.584,0.551,1.038,1.036,0.584c1.109-2.204,3.386-2.692,4.293-2.801
				C393.287,391.023,393.022,390.834,392.811,390.775z"/>
			<path id="XMLID_2430_" style="fill:#FAFAFA;" d="M394.094,391.785c-2.646,0.355-3.714,2.219-3.992,2.794
				c-0.265,0.584,0.551,1.038,1.037,0.584c0.879-1.747,2.496-2.417,3.581-2.674C394.507,392.238,394.296,391.998,394.094,391.785z"
				/>
			<g id="XMLID_2176_">
				<path id="XMLID_2128_" style="fill:#455A64;" d="M359.483,417.816c-0.303,1.502,0.24,2.285,2.178,3.404
					c1.938,1.119,4.979,1.503,8.178,0.572c3.199-0.931,4.728-2.327,6.058-2.659c1.33-0.332,4.619-0.361,5.933-0.746
					c1.314-0.385,1.294-1.059,1.287-2.638L359.483,417.816z"/>
				<g id="XMLID_2419_">
					<path id="XMLID_2420_" style="fill:#27DEBF;" d="M381.83,408.134c0,0,0.624,1.892,0.961,3.546
						c0.267,1.315,0.65,3.513,0.19,4.502c-0.461,0.989-2.257,1.628-5.042,1.606c-1.804-0.014-4.615,1.211-6.539,2.285
						c-1.988,1.109-4.144,1.113-6.247,0.866c-2.478-0.291-5.045-1.728-5.445-2.754c-0.4-1.026-0.504-1.796,5.335-4.284
						c0.053-0.023,6.776-2.503,9.601-5.621L381.83,408.134z"/>
				</g>
				<g id="XMLID_2108_" style="opacity:0.2;">
					<path id="XMLID_2173_" d="M381.83,408.134c0,0,0.624,1.892,0.961,3.546c0.267,1.315,0.65,3.513,0.19,4.502
						c-0.461,0.989-2.257,1.628-5.042,1.606c-1.804-0.014-4.615,1.211-6.539,2.285c-1.988,1.109-4.144,1.113-6.247,0.866
						c-2.478-0.291-5.045-1.728-5.445-2.754c-0.4-1.026-0.504-1.796,5.335-4.284c0.053-0.023,6.776-2.503,9.601-5.621
						L381.83,408.134z"/>
				</g>
				<path id="XMLID_2131_" style="fill:#FAFAFA;" d="M370.603,420.457c0,0-0.5-5.014-4.576-6.448
					c-3.684-1.296-6.901,1.434-6.543,3.807C359.725,419.413,364.21,423.038,370.603,420.457z"/>
				<path id="XMLID_2175_" style="fill:#FAFAFA;" d="M367.058,413.07c0,0,1.314,0,2.782,1.235c1.175,0.989,1.209,1.646,1.209,1.646
					c0.268,0.412,1.132,0.186,1.063-0.508c0,0-0.273-2.529-3.602-3.047C368.51,412.396,367.595,412.168,367.058,413.07z"/>
				<path id="XMLID_2179_" style="fill:#FAFAFA;" d="M369.389,411.954c0,0,1.34-0.12,2.809,1.116
					c1.175,0.989,1.182,1.766,1.182,1.766c0.268,0.411,1.132,0.186,1.063-0.508c0,0-0.274-2.529-3.602-3.047
					C370.841,411.28,369.926,411.053,369.389,411.954z"/>
				<path id="XMLID_2181_" style="fill:#FAFAFA;" d="M371.702,410.634c0,0,1.329-0.211,2.878,0.922c1.24,0.906,1.3,1.681,1.3,1.681
					c0.296,0.392,1.142,0.108,1.026-0.58c0,0-0.446-2.504-3.801-2.794C373.104,409.863,372.176,409.698,371.702,410.634z"/>
			</g>
			<g id="XMLID_2421_">
				<path id="XMLID_2422_" style="fill:#FFA8A7;" d="M398.016,393.709v3.401c0,0-2.262,1.738-5.496,0.149
					c-0.095-0.21-0.371-3.55-0.371-3.55H398.016z"/>
			</g>
			<g id="XMLID_2404_">
				<path id="XMLID_2405_" style="fill:#FFA8A7;" d="M381.83,405.783c0,0-0.008,1.614,0,2.537c0.008,0.922-1.081,2.297-3.901,2.196
					c-1.981-0.071-3.364-0.603-3.285-2.235v-2.352L381.83,405.783z"/>
			</g>
			<g id="XMLID_2397_">
				<path id="XMLID_2398_" style="fill:#455A64;" d="M401.684,364.847c-0.184-7.174-1.659-10.322-1.659-10.322
					s0.549-8.861,1.742-19.71c1.815-16.517,0.98-19.719-2.279-27.15c0,0-27.803-2.818-28.651,8.736
					c-1.056,14.389-1.182,43.658-0.8,48.741c0.382,5.083,0.377,0.386,1.611,10.675c0.977,8.139,2.996,30.112,2.996,30.112
					c3.69,1.995,7.186-0.147,7.186-0.147s2.273-26.888,2.035-32.753c-0.291-7.162-0.697-8.985-0.697-8.985
					s3.251-23.185,3.754-26.918c0,0,0.453,6.68,0.835,11.764c0.382,5.083,0.35,9.177,1.421,19.692
					c0.84,8.247,2.875,26.052,2.875,26.052c3.287,1.388,6.063-0.447,6.063-0.447S401.833,370.652,401.684,364.847z"/>
			</g>
			<path id="XMLID_2318_" style="fill:#FAFAFA;" d="M385.716,394.539c0,0,0.156-3.971,5.523-4.523l0.308,0.174
				c0,0-0.855-1.557-2.64-2.039c-1.785-0.481-3.194-0.02-4.131,1.187S384.789,393.765,385.716,394.539z"/>
		</g>
		<g id="XMLID_2393_">
			<g id="XMLID_2394_">
				<polygon id="XMLID_2395_" style="fill:#FFA8A7;" points="378.873,270.475 380.179,281.219 389.624,280.366 388.545,268.441 				
					"/>
			</g>
		</g>
		<g id="XMLID_2357_">
			<g id="XMLID_2358_">
				<path id="XMLID_2361_" style="fill:#37474F;" d="M398.836,279.413c-1.038-2.826-3.417-5.787-7.048-5.112
					c-0.946,0.176-1.777,0.314-2.668,0.493c-0.082,2.475-4.745,3.756-9.395,2.255c-1.398,0.401-2.677,0.808-3.839,1.223
					c-3.324,1.187-4.661,6.71-4.734,15.949c-0.073,9.238-1.372,27.788-1.372,27.788s6.99,3.711,20.074,1.34
					c13.084-2.372,12.854-6.818,12.854-6.818s-0.262-5.42-6.158-14.521C401.558,288.691,400.377,283.607,398.836,279.413z"/>
			</g>
		</g>
		<g id="XMLID_2319_">
			<g id="XMLID_2353_">
				<path id="XMLID_2356_" style="fill:#263238;" d="M371.854,256.828c0,0-1.979-3.761,0.711-7.986
					c3.171-4.979,9.284-5.828,16.527-3.886c3.59,0.963,8.611,4.778,9.061,11.665c0.347,5.312-14.468,9.23-14.13,12.869
					L371.854,256.828z"/>
			</g>
			<g id="XMLID_2343_">
				<path id="XMLID_2350_" style="fill:#F28F8F;" d="M371.535,258.846c0,0-2.01,3.224-1.728,3.552
					c0.282,0.328,1.624,0.649,1.624,0.649L371.535,258.846z"/>
			</g>
			<g id="XMLID_2334_">
				<path id="XMLID_2340_" style="fill:#FFA8A7;" d="M377.667,248.637c-2.009,1.107-5.476,3.147-6.179,10.674
					c-0.721,7.727,1.065,10.357,2.143,11.339c0.727,0.662,4.391,0.811,6.283,0.167c2.367-0.806,7.469-3.5,9.787-7.541
					c2.726-4.754,3.147-11.003-0.211-13.358C384.764,246.602,379.367,247.699,377.667,248.637z"/>
			</g>
			<path id="XMLID_955_" style="fill:#263238;" d="M377.767,257.731c0,0-4.144-1.271-4.903-6.174
				c-0.759-4.903,5.365-6.978,5.365-6.978L377.767,257.731z"/>
			<g id="XMLID_2322_">
				<path id="XMLID_2323_" style="fill:#263238;" d="M377.074,248.974c0,0-1.586,7.074,0.661,11.457c0,0,1.171-2.775,3.549-2.052
					c2.394,0.728,2.262,3.897,0.439,5.565c-1.824,1.667-3.658,0.88-3.658,0.88s1.087,2.981,3.534,5.336
					c0,0,7.041,3.139,13.137-3.742c5.532-6.244,4.504-17.134-3.969-19.703C382.296,244.146,377.074,248.974,377.074,248.974z"/>
			</g>
			<path id="XMLID_953_" style="fill:#263238;" d="M406.245,276.692L406.245,276.692c-5.31,0-9.615-4.305-9.615-9.615v-16.099l0,0
				c5.31,0,9.615,4.305,9.615,9.614V276.692z"/>
			<path id="XMLID_2320_" style="fill:#263238;" d="M397.703,248.891c-0.873,0.281-1.353,1.215-1.073,2.088l3.161-1.016
				C399.511,249.09,398.576,248.61,397.703,248.891z"/>
		</g>
		<g id="XMLID_2092_">
			<g id="XMLID_2316_">
				<path id="XMLID_2317_" style="fill:#FFA8A7;" d="M351.982,295.289c-1.371-1.566-1.598-5.026-3.426-7.406
					c-1.784-2.325-1.494-4.779-2.64-3.711c-1.226,1.142-0.29,4.97-0.29,4.97s-2.127,3.946-2.307,5.966
					c-0.18,2.02,5.164,7.092,5.164,7.092L351.982,295.289z"/>
			</g>
			<g id="XMLID_2124_">
				<path id="XMLID_2267_" style="fill:#FFA8A7;" d="M345.916,288.871c0,0-2.164,3.026-11.913-0.926
					c-2.692-1.092-0.875,4.697,2.427,7.095c3.056,2.219,6.882,2.906,9.94,4.978C346.378,299.723,345.916,288.871,345.916,288.871z"
					/>
			</g>
			<g id="XMLID_2119_">
				<path id="XMLID_2120_" style="fill:#FFA8A7;" d="M376.713,277.987c-2.777,0.966-5.207,2.085-7.799,6.955
					c-3.33,6.258-9.386,18.517-9.386,18.517l-7.546-8.17c0,0-1.099-1.548-3.141,1.827c-2.043,3.376-1.14,4.309-1.14,4.309
					s8.78,11.761,10.392,13.257c1.612,1.497,4.259,0.333,5.986-2.021c1.727-2.354,10.662-18.535,10.662-18.535
					S380.637,283.904,376.713,277.987z"/>
			</g>
			<path id="XMLID_954_" style="fill:#27DEBF;" d="M378.06,277.547c-0.691,0.222-5.476,0.221-8.464,5.628
				c-3.318,6.004-6.815,12.779-6.815,12.779s2.404,5.803,8.54,6.246c0.011-0.598,5.023-9.495,6.908-13.309
				C380.115,285.078,379.935,279.261,378.06,277.547z"/>
		</g>
		<path id="XMLID_2118_" style="fill:#37474F;" d="M386.922,337.127l0.526-5.62c0,0,4.082-0.394,8.481-3.209
			c0,0-1.805,2.894-6.762,4.212l-1.119,5.475l-0.292,10.906L386.922,337.127z"/>
	</g>
</g>
</svg>
